<?xml version="1.0" encoding="UTF-8" standalone="no"?>
<svg
   xmlns:dc="http://purl.org/dc/elements/1.1/"
   xmlns:cc="http://creativecommons.org/ns#"
   xmlns:rdf="http://www.w3.org/1999/02/22-rdf-syntax-ns#"
   xmlns:svg="http://www.w3.org/2000/svg"
   xmlns="http://www.w3.org/2000/svg"
   viewBox="0 0 669.26666 206.57333"
   height="206.57333"
   width="669.26666"
   xml:space="preserve"
   id="svg2"
   version="1.1"><metadata
     id="metadata8"><rdf:RDF><cc:Work
         rdf:about=""><dc:format>image/svg+xml</dc:format><dc:type
           rdf:resource="http://purl.org/dc/dcmitype/StillImage" /></cc:Work></rdf:RDF></metadata><defs
     id="defs6" /><g
     transform="matrix(1.3333333,0,0,-1.3333333,0,206.57333)"
     id="g10"><g
       transform="scale(0.1)"
       id="g12"><path
         id="path14"
         style="fill:#ffffff;fill-opacity:1;fill-rule:nonzero;stroke:none"
         d="m 2215.18,378.422 c -276.43,0 -328.17,162.609 -316.35,347.387 h 223.22 c 0,-101.993 4.43,-187.727 127.12,-187.727 75.39,0 112.35,48.77 112.35,121.211 0,192.168 -449.38,203.992 -449.38,521.817 0,167.04 79.82,300.08 351.81,300.08 217.3,0 325.22,-97.56 310.43,-320.78 h -217.3 c 0,79.83 -13.3,161.13 -103.47,161.13 -72.43,0 -115.3,-39.91 -115.3,-113.82 0,-202.52 449.38,-184.78 449.38,-520.341 0,-276.438 -202.52,-308.957 -372.51,-308.957" /><path
         id="path16"
         style="fill:#ffffff;fill-opacity:1;fill-rule:nonzero;stroke:none"
         d="m 3187.67,1036.25 v 427.2 h 223.22 V 396.172 H 3187.67 V 872.156 H 2931.94 V 396.172 H 2708.73 V 1463.45 h 223.21 v -427.2 h 255.73" /><path
         id="path18"
         style="fill:#ffffff;fill-opacity:1;fill-rule:nonzero;stroke:none"
         d="m 3786.02,994.852 h 124.17 c 66.52,0 112.35,72.438 112.35,143.388 0,87.22 -23.65,161.13 -124.17,161.13 h -112.35 z m -223.21,468.598 h 402.08 c 204,0 283.82,-124.18 283.82,-319.3 0,-121.21 -35.48,-313.38 -297.13,-313.38 H 3786.02 V 396.172 H 3562.81 V 1463.45" /><path
         id="path20"
         style="fill:#ffffff;fill-opacity:1;fill-rule:nonzero;stroke:none"
         d="M 4337.75,396.172 V 1463.45 h 582.42 v -164.08 h -359.21 v -263.12 h 331.13 V 872.156 H 4560.96 V 560.25 h 371.03 V 396.172 h -594.24" /><path
         id="path22"
         style="fill:#f1502b;fill-opacity:1;fill-rule:nonzero;stroke:none"
         d="M 1917.69,217.5 H 1955 V 76.0313 h 73.21 V 46.9883 H 1917.69 V 217.5" /><path
         id="path24"
         style="fill:#f1502b;fill-opacity:1;fill-rule:nonzero;stroke:none"
         d="m 2120.55,119.719 c 0,5.441 -0.48,26.703 -20.79,26.703 -15.35,0 -21.72,-12.75 -22.43,-26.703 z m -44.4,-21.9495 c 0,-7.789 0,-31.8789 24.32,-31.8789 8.75,0 17.48,3.3008 20.79,16.5313 h 31.87 c -0.47,-5.6836 -1.65,-15.8321 -11.32,-25.9805 -8.75,-9.2109 -24.34,-13.9297 -41.81,-13.9297 -10.16,0 -29.52,1.8789 -42.03,14.8789 -10.87,11.3282 -15.35,27.3907 -15.35,46.5074 0,19.383 4.72,42.524 24.79,56.454 9.21,6.136 20.55,9.918 33.54,9.918 17,0 37.31,-6.61 48.17,-28.821 8.04,-16.289 7.56,-33.769 7.08,-43.6795 h -80.05" /><path
         id="path26"
         style="fill:#f1502b;fill-opacity:1;fill-rule:nonzero;stroke:none"
         d="m 2207.94,83.832 c 0,-8.0234 5.42,-17 17,-17 6.37,0 11.57,3.0664 14.88,6.8477 6.13,7.5586 6.6,16.7695 6.6,29.5193 -22.43,1.883 -38.48,-5.199 -38.48,-19.367 z m 42.97,-36.8437 c -1.17,7.3203 -1.17,12.75 -1.17,16.3008 -13.23,-19.1289 -29.06,-19.1289 -35.67,-19.1289 -17.24,0 -25.03,4.9609 -29.75,9.4414 -7.08,7.0898 -10.39,16.7773 -10.39,26.2187 0,9.4414 3.31,26.9097 25.27,37.0707 14.64,6.621 35.66,6.621 47.22,6.621 0,7.789 -0.23,11.558 -1.65,15.808 -3.07,8.75 -12.28,9.918 -15.58,9.918 -4.96,0 -10.16,-2.117 -13.23,-6.609 -2.6,-4.008 -2.6,-7.789 -2.6,-10.617 h -34.24 c 0.24,6.379 0.95,19.129 13.47,28.097 10.86,7.801 24.79,9.68 36.12,9.68 9.92,0 30.7,-1.648 42.51,-15.348 8.03,-9.679 8.27,-23.851 8.27,-29.281 l 0.24,-47.9412 c 0,-10.1485 0.71,-20.3086 2.83,-30.2305 h -31.65" /><path
         id="path28"
         style="fill:#f1502b;fill-opacity:1;fill-rule:nonzero;stroke:none"
         d="m 2362.85,67.3008 c 10.16,0 18.42,6.1406 22.2,13.4687 5.19,9.9102 5.67,22.1995 5.67,28.0895 0,23.379 -10.15,36.141 -25.98,36.141 -23.37,0 -25.97,-28.109 -25.97,-40.148 0,-19.8325 6.6,-37.5512 24.08,-37.5512 z M 2389.54,217.5 h 35.19 V 66.3516 c 0,-7.0821 0.46,-14.8711 0.94,-19.3633 h -35.43 l -0.93,17.2422 c -2.37,-4.2422 -4.73,-8.7422 -12.06,-13.461 -8.73,-5.6679 -17.93,-6.1289 -23.13,-6.1289 -31.89,0 -50.78,21.9492 -50.78,59.2574 0,39.454 21.49,64.012 52.66,64.012 21.49,0 30.47,-12.039 33.54,-16.301 V 217.5" /><path
         id="path30"
         style="fill:#f1502b;fill-opacity:1;fill-rule:nonzero;stroke:none"
         d="m 2454.95,166.488 h 34.96 V 46.9883 h -34.96 z m -1.18,51.012 h 37.32 v -30.469 h -37.32 V 217.5" /><path
         id="path32"
         style="fill:#f1502b;fill-opacity:1;fill-rule:nonzero;stroke:none"
         d="m 2521.08,145 c 0,0.469 0,13.461 -0.71,21.719 h 33.54 l 0.93,-17.938 c 3.31,5.43 12.76,20.778 38.74,20.778 23.38,0 33.3,-14.168 36.37,-22.438 2.59,-7.32 3.3,-13.449 3.3,-35.66 V 46.9883 h -35.66 v 74.1597 c 0,4.961 0,9.211 -1.89,12.981 -2.6,5.191 -8.03,10.152 -17,10.152 -7.56,0 -14.4,-3.531 -18.18,-9.211 -2.12,-3.058 -4.25,-8.961 -4.25,-18.179 V 46.9883 h -35.19 V 145" /><path
         id="path34"
         style="fill:#f1502b;fill-opacity:1;fill-rule:nonzero;stroke:none"
         d="m 2718.04,73.2109 c 24.56,0 24.56,28.8091 24.56,34.0001 0,13.469 -2.6,36.371 -23.85,36.371 -13.23,0 -24.09,-10.16 -24.09,-35.652 0,-5.91 0,-34.7191 23.38,-34.7191 z m 59.98,92.5701 c -0.95,-9.449 -1.65,-17.472 -1.65,-29.511 V 48.1797 C 2776.37,4.23828 2739.76,0 2716.85,0 c -17,0 -50.3,2.12891 -52.43,38.25 h 33.55 c 0.47,-3.5391 2.12,-16.5312 20.78,-16.5312 10.38,0 19.36,4.9726 21.72,15.5898 1.41,5.9102 1.41,10.1602 1.65,28.3398 -11.1,-14.6484 -23.61,-16.2968 -32.11,-16.2968 -34.24,0 -50.3,29.7578 -50.3,58.5784 0,30.218 16.76,59.031 51.01,59.031 21.72,0 29.75,-11.813 33.29,-17 l 1.18,15.82 h 32.83" /><path
         id="path36"
         style="fill:#f1502b;fill-opacity:1;fill-rule:nonzero;stroke:none"
         d="m 2875.32,217.73 h 36.6 v -68.25 h 64.48 v 68.25 h 37.07 V 46.9883 h -36.61 v 74.8637 h -64.94 V 46.9883 h -36.6 V 217.73" /><path
         id="path38"
         style="fill:#f1502b;fill-opacity:1;fill-rule:nonzero;stroke:none"
         d="m 3045.35,166.488 h 34.95 V 46.9883 h -34.95 z m -1.19,51.012 h 37.32 v -30.469 h -37.32 V 217.5" /><path
         id="path40"
         style="fill:#f1502b;fill-opacity:1;fill-rule:nonzero;stroke:none"
         d="m 3135.33,81.4688 c 0.47,-7.5586 5.2,-16.2891 19.83,-16.2891 12.52,0 18.42,7.082 18.42,14.1601 0,5.4415 -2.83,9.6915 -16.52,13.4688 l -21.73,5.9023 c -9.69,2.8281 -30.23,8.7381 -30.23,33.0591 0,23.152 21.26,37.32 52.19,37.32 24.56,0 44.4,-11.34 45.35,-35.192 h -31.89 c -0.94,13.223 -11.56,14.172 -17,14.172 -9.44,0 -16.52,-4.488 -16.52,-11.8 0,-8.04 5.89,-9.7 16.28,-12.52 l 21.49,-5.91 c 21.73,-5.91 31.88,-17 31.88,-33.3009 0,-20.5508 -17.7,-41.0977 -54.78,-41.0977 -15.35,0 -29.99,3.3086 -40.85,14.6484 -7.8,8.2618 -8.51,17.7188 -8.75,23.379 h 32.83" /><path
         id="path42"
         style="fill:#f1502b;fill-opacity:1;fill-rule:nonzero;stroke:none"
         d="m 3313.39,107.68 c 0,14.172 -3.54,38.5 -24.08,38.5 -11.34,0 -27.4,-8.508 -27.4,-40.621 0,-7.0785 0.24,-37.309 25.98,-37.309 16.52,0 25.5,15.8203 25.5,39.43 z m -51.48,58.582 0.95,-17.024 c 10.85,19.141 30.69,19.383 36.36,19.383 30.94,0 49.59,-23.152 49.59,-59.519 0,-33.7622 -17.47,-63.7622 -51.96,-63.7622 -21.48,0 -30.22,11.3399 -33.29,15.3516 V 1.17969 H 3227.9 V 166.262 h 34.01" /><path
         id="path44"
         style="fill:#f1502b;fill-opacity:1;fill-rule:nonzero;stroke:none"
         d="m 3401.95,83.832 c 0,-8.0234 5.43,-17 17,-17 6.38,0 11.58,3.0664 14.89,6.8477 6.13,7.5586 6.6,16.7695 6.6,29.5193 -22.43,1.883 -38.49,-5.199 -38.49,-19.367 z m 42.98,-36.8437 c -1.18,7.3203 -1.18,12.75 -1.18,16.3008 -13.22,-19.1289 -29.05,-19.1289 -35.67,-19.1289 -17.23,0 -25.02,4.9609 -29.74,9.4414 -7.09,7.0898 -10.39,16.7773 -10.39,26.2187 0,9.4414 3.3,26.9097 25.26,37.0707 14.64,6.621 35.67,6.621 47.23,6.621 0,7.789 -0.24,11.558 -1.65,15.808 -3.07,8.75 -12.28,9.918 -15.59,9.918 -4.96,0 -10.15,-2.117 -13.22,-6.609 -2.6,-4.008 -2.6,-7.789 -2.6,-10.617 h -34.24 c 0.24,6.379 0.95,19.129 13.46,28.097 10.86,7.801 24.8,9.68 36.13,9.68 9.92,0 30.7,-1.648 42.5,-15.348 8.04,-9.679 8.27,-23.851 8.27,-29.281 l 0.24,-47.9412 c 0,-10.1485 0.71,-20.3086 2.83,-30.2305 h -31.64" /><path
         id="path46"
         style="fill:#f1502b;fill-opacity:1;fill-rule:nonzero;stroke:none"
         d="m 3505.16,145 c 0,0.469 0,13.461 -0.72,21.719 h 33.54 l 0.93,-17.938 c 3.32,5.43 12.76,20.778 38.75,20.778 23.37,0 33.29,-14.168 36.36,-22.438 2.59,-7.32 3.3,-13.449 3.3,-35.66 V 46.9883 h -35.66 v 74.1597 c 0,4.961 0,9.211 -1.89,12.981 -2.59,5.191 -8.02,10.152 -17,10.152 -7.56,0 -14.4,-3.531 -18.18,-9.211 -2.13,-3.058 -4.25,-8.961 -4.25,-18.179 V 46.9883 h -35.18 V 145" /><path
         id="path48"
         style="fill:#f1502b;fill-opacity:1;fill-rule:nonzero;stroke:none"
         d="m 3648.97,166.488 h 34.95 V 46.9883 h -34.95 z m -1.18,51.012 h 37.32 v -30.469 h -37.32 V 217.5" /><path
         id="path50"
         style="fill:#f1502b;fill-opacity:1;fill-rule:nonzero;stroke:none"
         d="m 3777.67,123.969 c -0.46,4.261 -1.88,21.972 -15.35,21.972 -16.52,0 -18.41,-25.031 -18.41,-38.011 0,-6.629 0.71,-27.8792 8.74,-36.6214 3.3,-3.5273 6.84,-4.0078 9.44,-4.0078 3.78,0 14.64,1.6484 16.06,22.9101 h 34.48 c -0.47,-9.2226 -1.65,-23.6211 -15.36,-35.1796 -8.5,-7.3321 -19.12,-11.1094 -34,-11.1094 -15.82,0 -29.76,3.5469 -40.61,15.8164 -10.4,12.043 -15.12,27.8711 -15.12,46.9917 0,54.329 39.91,61.891 55.73,61.891 22.2,0 48.41,-12.289 48.64,-44.652 h -34.24" /><path
         id="path52"
         style="fill:#f1502b;fill-opacity:1;fill-rule:nonzero;stroke:none"
         d="m 3857.03,81.4688 c 0.48,-7.5586 5.2,-16.2891 19.83,-16.2891 12.52,0 18.43,7.082 18.43,14.1601 0,5.4415 -2.84,9.6915 -16.53,13.4688 l -21.73,5.9023 c -9.68,2.8281 -30.22,8.7381 -30.22,33.0591 0,23.152 21.25,37.32 52.19,37.32 24.55,0 44.4,-11.34 45.34,-35.192 h -31.89 c -0.94,13.223 -11.56,14.172 -16.99,14.172 -9.46,0 -16.55,-4.488 -16.55,-11.8 0,-8.04 5.91,-9.7 16.3,-12.52 l 21.5,-5.91 c 21.73,-5.91 31.88,-17 31.88,-33.3009 0,-20.5508 -17.71,-41.0977 -54.78,-41.0977 -15.35,0 -30,3.3086 -40.86,14.6484 -7.79,8.2618 -8.51,17.7188 -8.74,23.379 h 32.82" /><path
         id="path54"
         style="fill:#f1502b;fill-opacity:1;fill-rule:nonzero;stroke:none"
         d="m 4016.44,166.488 h 34.96 V 46.9883 h -34.96 z m -1.18,51.012 h 37.32 v -30.469 h -37.32 V 217.5" /><path
         id="path56"
         style="fill:#f1502b;fill-opacity:1;fill-rule:nonzero;stroke:none"
         d="m 4082.57,145 c 0,0.469 0,13.461 -0.71,21.719 h 33.54 l 0.94,-17.938 c 3.31,5.43 12.75,20.778 38.73,20.778 23.38,0 33.3,-14.168 36.37,-22.438 2.59,-7.32 3.3,-13.449 3.3,-35.66 V 46.9883 h -35.66 v 74.1597 c 0,4.961 0,9.211 -1.88,12.981 -2.6,5.191 -8.04,10.152 -17.01,10.152 -7.55,0 -14.4,-3.531 -18.18,-9.211 -2.13,-3.058 -4.25,-8.961 -4.25,-18.179 V 46.9883 h -35.19 V 145" /><path
         id="path58"
         style="fill:#f1502b;fill-opacity:1;fill-rule:nonzero;stroke:none"
         d="m 4322.27,101.539 c 0,-8.0195 -0.47,-32.3476 30.94,-32.3476 19.84,0 32.35,9.4375 32.35,23.8477 0,15.1209 -10.63,17.7229 -32.35,22.9099 -40.62,10.16 -62.82,22.199 -62.82,51.711 0,28.11 20.08,52.899 67.54,52.899 17.71,0 38.73,-4 51.47,-20.071 9.69,-12.277 9.69,-25.968 9.69,-31.636 h -35.18 c -0.47,5.898 -2.37,25.968 -27.64,25.968 -17,0 -28.1,-9.211 -28.1,-23.14 0,-15.809 12.52,-18.66 37.08,-24.801 29.51,-7.078 58.57,-15.109 58.57,-48.3985 0,-30.6992 -25.51,-55.5 -72.75,-55.5 -65.41,0 -65.88,42.039 -66.11,58.5585 h 37.31" /><path
         id="path60"
         style="fill:#f1502b;fill-opacity:1;fill-rule:nonzero;stroke:none"
         d="m 4483.57,189.391 h -50.77 v 28.339 h 138.38 v -28.339 h -50.77 V 46.9883 h -36.84 V 189.391" /><path
         id="path62"
         style="fill:#f1502b;fill-opacity:1;fill-rule:nonzero;stroke:none"
         d="m 4591.26,217.73 h 114.3 v -27.871 h -77.69 v -40.621 h 72.73 v -27.867 h -72.73 V 75.3398 h 80.28 V 46.9883 H 4591.26 V 217.73" /><path
         id="path64"
         style="fill:#f1502b;fill-opacity:1;fill-rule:nonzero;stroke:none"
         d="m 4732.24,217.73 h 59.75 l 36.13,-124.2105 38.97,124.2105 h 58.09 V 46.9883 h -36.36 V 193.41 L 4842.29,46.9883 h -30.22 L 4766.49,193.41 V 46.9883 h -34.25 V 217.73" /><path
         id="path66"
         style="fill:#73abbf;fill-opacity:1;fill-rule:nonzero;stroke:none"
         d="m 798.891,861.52 c 9.918,6.777 15.457,18.214 14.476,30.175 -15.988,194.785 -34.187,479.745 67.828,520.675 70.602,28.33 124.295,-103.8 155.475,-211.42 3.95,-13.63 21.41,-12.6 18.96,6.45 -20.05,155.89 -58.442,300.67 -179.509,335.07 -222.902,63.32 -375.387,-324.83 -331.308,-794.064 2.386,-25.468 31.148,-39.211 52.265,-24.777 L 798.891,861.52" /><path
         id="path68"
         style="fill:#366cbe;fill-opacity:1;fill-rule:nonzero;stroke:none"
         d="M 820.512,689.195 C 810.598,682.418 805.059,670.984 806.039,659.02 822.023,464.23 840.227,179.27 738.211,138.352 667.605,110.02 613.914,242.141 582.727,349.762 578.781,363.391 561.316,362.371 563.77,343.32 583.828,187.43 622.215,42.6406 743.281,8.25 c 222.91,-63.3203 375.389,324.832 331.309,794.07 -2.39,25.461 -31.15,39.2 -52.26,24.766 L 820.512,689.195" /><path
         id="path70"
         style="fill:#d43223;fill-opacity:1;fill-rule:nonzero;stroke:none"
         d="m 691.289,498.801 c -226.055,5.301 -440.23,67.543 -429.547,177.601 5.582,57.618 88.274,98.743 134.973,119.864 11.543,5.222 22.531,13.742 22.394,26.386 0,0.227 0.039,0.567 0.039,0.813 -0.25,6.238 -0.476,12.09 -0.699,17.754 -4.461,76.98 -3.664,151.219 1.914,221.041 -1.48,14.52 -12.863,19.7 -35.925,12.46 C 243.379,1030.49 127.152,946.742 68.2695,883.406 -21.9414,786.363 -10.3086,691.961 31.9766,629.344 137.676,472.809 507.109,466.59 689.539,475.191 c 14.758,0.688 16.399,23.27 1.75,23.61" /><path
         id="path72"
         style="fill:#f1502b;fill-opacity:1;fill-rule:nonzero;stroke:none"
         d="m 928.113,1051.91 c 226.057,-5.29 440.237,-67.527 429.547,-177.59 -5.58,-57.625 -88.27,-98.75 -134.97,-119.871 -11.54,-5.222 -22.53,-13.738 -22.39,-26.386 0,-0.223 -0.04,-0.567 -0.04,-0.809 0.25,-6.242 0.47,-12.082 0.69,-17.754 4.47,-76.973 3.67,-151.223 -1.91,-221.051 1.49,-14.519 12.87,-19.687 35.93,-12.461 141.06,44.231 257.28,127.985 316.17,191.325 90.21,97.039 78.58,191.445 36.29,254.058 -105.7,156.539 -475.14,162.769 -657.563,154.159 -14.758,-0.7 -16.394,-23.28 -1.754,-23.62" /><path
         id="path74"
         style="fill:#ffffff;fill-opacity:1;fill-rule:nonzero;stroke:none"
         d="m 4983.18,79.75 h 7.32 c 1.74,0 3.02,0.5586 3.86,1.6719 0.84,1.1172 1.26,2.4492 1.26,4.0273 0,0.6524 -0.07,1.2813 -0.24,1.9102 -0.17,0.6211 -0.45,1.1914 -0.86,1.7109 -0.4,0.5195 -0.93,0.9297 -1.58,1.2578 -0.65,0.3203 -1.47,0.4922 -2.44,0.4922 h -7.32 z m 0,-20.25 h -5.69 v 35.2188 h 13.98 c 1.68,0 3.15,-0.2579 4.4,-0.7774 1.25,-0.5195 2.27,-1.1719 3.09,-1.9922 0.81,-0.8008 1.41,-1.75 1.79,-2.8008 0.38,-1.0586 0.57,-2.1289 0.57,-3.2187 0,-2.0586 -0.71,-3.8086 -2.11,-5.2813 -1.42,-1.457 -3.25,-2.4101 -5.54,-2.8476 v -0.1602 c 1.08,-0.1093 2,-0.3203 2.76,-0.6093 0.77,-0.3125 1.39,-0.7696 1.88,-1.4297 0.49,-0.6407 0.85,-1.5118 1.09,-2.6016 0.25,-1.0781 0.4,-2.5312 0.45,-4.3086 0,-0.3711 0.04,-0.9726 0.13,-1.793 0.08,-0.8086 0.18,-1.6601 0.28,-2.5586 0.11,-0.8984 0.25,-1.789 0.4,-2.6796 0.17,-0.8985 0.35,-1.6094 0.58,-2.1602 h -5.62 c -0.7,1.25 -1.07,2.9219 -1.1,5 -0.02,2.0898 -0.15,4.3203 -0.36,6.7188 -0.11,0.9218 -0.36,1.6523 -0.77,2.1914 -0.41,0.539 -0.88,0.9492 -1.43,1.2187 -0.54,0.2695 -1.09,0.4297 -1.67,0.4922 -0.56,0.0508 -1.03,0.0781 -1.41,0.0781 h -5.7 z m 5.77,43.68 c -3.63,0 -7.03,-0.668 -10.2,-2.032 -3.18,-1.3589 -5.94,-3.2066 -8.3,-5.5777 -2.36,-2.3515 -4.22,-5.1211 -5.57,-8.289 -1.36,-3.1719 -2.04,-6.5508 -2.04,-10.1329 0,-3.6289 0.68,-7.0273 2.04,-10.1601 1.35,-3.1485 3.21,-5.8985 5.57,-8.2578 2.36,-2.3711 5.12,-4.211 8.3,-5.5703 3.17,-1.3594 6.57,-2.0313 10.2,-2.0313 3.64,0 7.03,0.6719 10.17,2.0313 3.14,1.3593 5.89,3.1992 8.21,5.5703 2.34,2.3593 4.18,5.1093 5.54,8.2578 1.36,3.1328 2.03,6.5312 2.03,10.1601 0,3.5821 -0.67,6.961 -2.03,10.1329 -1.36,3.1679 -3.2,5.9375 -5.54,8.289 -2.32,2.3711 -5.07,4.2188 -8.21,5.5777 -3.14,1.364 -6.53,2.032 -10.17,2.032 z m 0,4.55 c 4.23,0 8.2,-0.8 11.88,-2.39 3.69,-1.602 6.91,-3.781 9.68,-6.5197 2.76,-2.7305 4.95,-5.9609 6.55,-9.6719 1.59,-3.707 2.39,-7.6875 2.39,-11.9179 0,-4.2813 -0.8,-8.2813 -2.39,-11.9922 -1.6,-3.7188 -3.79,-6.957 -6.55,-9.7266 -2.77,-2.7617 -5.99,-4.9414 -9.68,-6.5429 -3.68,-1.5977 -7.65,-2.3985 -11.88,-2.3985 -4.22,0 -8.2,0.8008 -11.91,2.3985 -3.72,1.6015 -6.97,3.7812 -9.77,6.5429 -2.79,2.7696 -4.98,6.0078 -6.58,9.7266 -1.6,3.7109 -2.4,7.7109 -2.4,11.9922 0,4.2304 0.8,8.2109 2.4,11.9179 1.6,3.711 3.79,6.9414 6.58,9.6719 2.8,2.7387 6.05,4.9177 9.77,6.5197 3.71,1.59 7.69,2.39 11.91,2.39" /></g></g></svg>