<svg version="1.1" xmlns="http://www.w3.org/2000/svg" style="display: block;" viewBox="0 0 2048 1114" width="941" height="512" preserveAspectRatio="none">
<defs>
	<linearGradient id="Gradient1" gradientUnits="userSpaceOnUse" x1="1471" y1="301.229" x2="1513.69" y2="327.669">
		<stop class="stop0" offset="0" stop-opacity="0.619608" stop-color="rgb(209,55,0)"/>
		<stop class="stop1" offset="1" stop-opacity="0.678431" stop-color="rgb(213,58,0)"/>
	</linearGradient>
	<linearGradient id="Gradient2" gradientUnits="userSpaceOnUse" x1="369.586" y1="132.265" x2="461.216" y2="216.026">
		<stop class="stop0" offset="0" stop-opacity="1" stop-color="rgb(120,127,153)"/>
		<stop class="stop1" offset="1" stop-opacity="1" stop-color="rgb(181,185,204)"/>
	</linearGradient>
	<linearGradient id="Gradient3" gradientUnits="userSpaceOnUse" x1="563.656" y1="187.785" x2="597.781" y2="153.837">
		<stop class="stop0" offset="0" stop-opacity="0.580392" stop-color="rgb(225,233,248)"/>
		<stop class="stop1" offset="1" stop-opacity="0.615686" stop-color="rgb(224,231,244)"/>
	</linearGradient>
	<linearGradient id="Gradient4" gradientUnits="userSpaceOnUse" x1="604.792" y1="347.619" x2="458.714" y2="214.556">
		<stop class="stop0" offset="0" stop-opacity="1" stop-color="rgb(121,128,154)"/>
		<stop class="stop1" offset="1" stop-opacity="1" stop-color="rgb(198,201,221)"/>
	</linearGradient>
	<linearGradient id="Gradient5" gradientUnits="userSpaceOnUse" x1="807.14" y1="792.964" x2="698.577" y2="721.886">
		<stop class="stop0" offset="0" stop-opacity="1" stop-color="rgb(29,41,75)"/>
		<stop class="stop1" offset="1" stop-opacity="1" stop-color="rgb(98,107,133)"/>
	</linearGradient>
	<linearGradient id="Gradient6" gradientUnits="userSpaceOnUse" x1="723.557" y1="614.763" x2="615.263" y2="621.265">
		<stop class="stop0" offset="0" stop-opacity="1" stop-color="rgb(99,109,135)"/>
		<stop class="stop1" offset="1" stop-opacity="1" stop-color="rgb(195,201,217)"/>
	</linearGradient>
	<linearGradient id="Gradient7" gradientUnits="userSpaceOnUse" x1="492.302" y1="970.012" x2="559.85" y2="545.77">
		<stop class="stop0" offset="0" stop-opacity="1" stop-color="rgb(27,38,73)"/>
		<stop class="stop1" offset="1" stop-opacity="1" stop-color="rgb(122,130,153)"/>
	</linearGradient>
	<linearGradient id="Gradient8" gradientUnits="userSpaceOnUse" x1="427.813" y1="647.658" x2="620.57" y2="633.503">
		<stop class="stop0" offset="0" stop-opacity="1" stop-color="rgb(134,141,164)"/>
		<stop class="stop1" offset="1" stop-opacity="1" stop-color="rgb(222,228,241)"/>
	</linearGradient>
	<linearGradient id="Gradient9" gradientUnits="userSpaceOnUse" x1="1542.32" y1="634.971" x2="1599.68" y2="632.922">
		<stop class="stop0" offset="0" stop-opacity="1" stop-color="rgb(143,149,171)"/>
		<stop class="stop1" offset="1" stop-opacity="1" stop-color="rgb(175,181,200)"/>
	</linearGradient>
	<linearGradient id="Gradient10" gradientUnits="userSpaceOnUse" x1="1524.64" y1="365.898" x2="1583.81" y2="362.259">
		<stop class="stop0" offset="0" stop-opacity="1" stop-color="rgb(143,149,170)"/>
		<stop class="stop1" offset="1" stop-opacity="1" stop-color="rgb(175,182,200)"/>
	</linearGradient>
	<linearGradient id="Gradient11" gradientUnits="userSpaceOnUse" x1="1445.56" y1="503.062" x2="1538.2" y2="497.325">
		<stop class="stop0" offset="0" stop-opacity="1" stop-color="rgb(91,101,127)"/>
		<stop class="stop1" offset="1" stop-opacity="1" stop-color="rgb(144,152,174)"/>
	</linearGradient>
	<linearGradient id="Gradient12" gradientUnits="userSpaceOnUse" x1="1887.11" y1="692.863" x2="1784.94" y2="594.153">
		<stop class="stop0" offset="0" stop-opacity="1" stop-color="rgb(33,43,77)"/>
		<stop class="stop1" offset="1" stop-opacity="1" stop-color="rgb(87,98,124)"/>
	</linearGradient>
	<linearGradient id="Gradient13" gradientUnits="userSpaceOnUse" x1="1798.17" y1="493.804" x2="1690.18" y2="500.267">
		<stop class="stop0" offset="0" stop-opacity="1" stop-color="rgb(104,113,139)"/>
		<stop class="stop1" offset="1" stop-opacity="1" stop-color="rgb(200,206,221)"/>
	</linearGradient>
	<linearGradient id="Gradient14" gradientUnits="userSpaceOnUse" x1="1576.77" y1="858.053" x2="1621.76" y2="495.833">
		<stop class="stop0" offset="0" stop-opacity="1" stop-color="rgb(32,42,77)"/>
		<stop class="stop1" offset="1" stop-opacity="1" stop-color="rgb(86,96,122)"/>
	</linearGradient>
	<linearGradient id="Gradient15" gradientUnits="userSpaceOnUse" x1="1590.45" y1="507.319" x2="1693.25" y2="500.89">
		<stop class="stop0" offset="0" stop-opacity="1" stop-color="rgb(182,188,206)"/>
		<stop class="stop1" offset="1" stop-opacity="1" stop-color="rgb(217,223,237)"/>
	</linearGradient>
	<linearGradient id="Gradient16" gradientUnits="userSpaceOnUse" x1="982.942" y1="931.961" x2="1090.55" y2="380.763">
		<stop class="stop0" offset="0" stop-opacity="1" stop-color="rgb(42,52,86)"/>
		<stop class="stop1" offset="1" stop-opacity="1" stop-color="rgb(64,76,104)"/>
	</linearGradient>
	<linearGradient id="Gradient17" gradientUnits="userSpaceOnUse" x1="1029.46" y1="793.76" x2="1168.79" y2="818.063">
		<stop class="stop0" offset="0" stop-opacity="1" stop-color="rgb(178,184,202)"/>
		<stop class="stop1" offset="1" stop-opacity="1" stop-color="rgb(212,218,233)"/>
	</linearGradient>
	<linearGradient id="Gradient18" gradientUnits="userSpaceOnUse" x1="1029.97" y1="413.92" x2="1158.7" y2="359.45">
		<stop class="stop0" offset="0" stop-opacity="1" stop-color="rgb(179,185,203)"/>
		<stop class="stop1" offset="1" stop-opacity="1" stop-color="rgb(212,218,232)"/>
	</linearGradient>
	<linearGradient id="Gradient19" gradientUnits="userSpaceOnUse" x1="1295.87" y1="594.266" x2="1240.66" y2="597.581">
		<stop class="stop0" offset="0" stop-opacity="1" stop-color="rgb(45,56,88)"/>
		<stop class="stop1" offset="1" stop-opacity="1" stop-color="rgb(97,106,132)"/>
	</linearGradient>
	<linearGradient id="Gradient20" gradientUnits="userSpaceOnUse" x1="1239.89" y1="570.334" x2="1144.95" y2="576.156">
		<stop class="stop0" offset="0" stop-opacity="1" stop-color="rgb(95,106,132)"/>
		<stop class="stop1" offset="1" stop-opacity="1" stop-color="rgb(185,190,208)"/>
	</linearGradient>
	<linearGradient id="Gradient21" gradientUnits="userSpaceOnUse" x1="863.939" y1="575.876" x2="1023.66" y2="566.187">
		<stop class="stop0" offset="0" stop-opacity="1" stop-color="rgb(74,84,112)"/>
		<stop class="stop1" offset="1" stop-opacity="1" stop-color="rgb(169,176,195)"/>
	</linearGradient>
</defs>
<path transform="translate(0,0)" fill="url(#Gradient21)" d="M 850.099 331.575 C 855.698 328.26 864.947 317.158 872.094 312.735 C 879.047 308.433 884.973 303.335 892.697 299.329 C 934.532 277.635 999.239 264.701 1046.2 270.87 C 1067.48 271.395 1089.24 276.931 1109.51 283.009 C 1123.52 285.842 1131.02 292.439 1143.43 298.12 L 1155.73 305.464 C 1162.71 310.667 1170.11 316.003 1176.89 321.411 C 1181.31 325.421 1186.61 330.5 1191.17 334.147 C 1201.26 345.691 1224.09 372.324 1229.67 385.765 C 1243.61 409.442 1246.21 420.605 1256.26 443.514 C 1257.41 447.603 1258.54 452.456 1260.64 456.056 C 1263.43 467.72 1267.39 483.788 1270.91 495.106 C 1271.57 500.409 1271.86 502.04 1273.55 507.075 C 1288.19 581.768 1315.24 655.788 1296.07 732.984 C 1294.94 737.505 1292 751.915 1292.06 756.123 C 1298.45 774.112 1298.32 802.113 1280.09 813.223 C 1264.12 855.268 1261.36 867.661 1226.98 899.49 C 1222.19 902.831 1214.67 908.397 1209.86 911.219 C 1200.25 916.903 1192.67 920.783 1182.74 925.654 C 1172.08 928.894 1166.01 932.923 1156.4 938.213 C 1155.11 938.927 1147.4 937.427 1145.61 937.748 C 1141.7 938.075 1138.04 938.953 1134.23 939.822 L 1114.69 943.437 C 1109.71 943.908 1103.83 944.317 1098.94 944.939 C 1087.03 945.326 1070.84 946.655 1059.5 946.044 C 1013.85 943.582 968.462 931.534 931.246 904.545 C 855.922 849.92 831.689 764.969 814.571 678.601 C 809.179 651.395 802.685 623.949 797.611 596.62 C 785.523 540.849 795.437 495.936 806.193 441.97 C 816.399 390.765 819.564 374.445 850.099 331.575 z M 1029.11 754.053 C 1044.03 742.219 1049.14 739.538 1067.9 740.101 C 1067.67 749.66 1067.73 762.994 1067.08 772.266 C 1071.86 773.198 1075.04 773.588 1079.9 774.021 C 1079.31 766.973 1081.13 757.398 1084.71 751.244 C 1088.16 745.192 1093.91 740.8 1100.66 739.074 C 1119.8 734.073 1130.67 747.203 1134.51 764.206 C 1137.02 763.132 1138.87 761.501 1141.03 759.836 C 1134.41 753.09 1148.96 748.361 1154.13 745.839 C 1149.82 708.274 1139.89 671.472 1132.15 634.509 C 1131.07 629.363 1129.84 624.617 1128.17 619.635 C 1128.11 633.48 1128.82 647.396 1128.72 661.543 C 1123.12 661.455 1116.48 661.763 1110.79 661.895 L 1110.83 605.054 C 1106.8 607.139 1099.42 611.991 1095.3 614.53 L 1087.1 602.809 C 1098.44 595.628 1108.66 587.258 1121.9 587.309 C 1113.24 549.319 1106 515.223 1083.99 482.298 C 1078.85 474.713 1073.89 469.645 1067.02 463.734 C 1061.75 457.901 1055.27 454.295 1048.44 450.652 C 1044.33 448.683 1038.74 446.727 1034.39 445.061 C 1004.73 437.078 960.159 442.182 939.86 467.775 C 943.606 506.582 955.625 552.812 964.316 591.07 C 975.164 638.827 987.869 720.012 1026.87 752.331 C 1027.6 752.932 1028.34 753.507 1029.11 754.053 z M 1097.18 774.251 C 1104.37 773.133 1110.71 771.883 1117.84 770.371 C 1116.79 764.228 1115.58 751.262 1107.27 751.819 C 1098.29 752.421 1097.73 768.232 1097.18 774.251 z"/>
<path transform="translate(0,0)" fill="rgb(211,57,0)" d="M 1052.09 586.293 C 1067.11 585.158 1079.17 591.692 1082.89 606.622 C 1088.39 628.692 1086.57 655.741 1061.71 663.354 C 1026.23 665.591 1022.84 623.117 1034.6 598.809 C 1038.06 591.636 1044.64 588.206 1052.09 586.293 z M 1060.22 650.45 C 1069.44 640.467 1069.77 611.852 1061.73 601.051 C 1060.11 598.875 1056.05 598.966 1053.67 598.96 C 1045.24 608.206 1043.79 638.19 1052.4 648.449 C 1053.96 650.309 1057.75 650.493 1060.22 650.45 z"/>
<path transform="translate(0,0)" fill="rgb(211,57,0)" fill-opacity="0.843137" d="M 1034.39 445.061 C 1038.74 446.727 1044.33 448.683 1048.44 450.652 C 1047.4 460.995 1043.5 494.44 1057.67 497.443 C 1067.56 494.091 1067.23 472.403 1067.02 463.734 C 1073.89 469.645 1078.85 474.713 1083.99 482.298 C 1081.89 492.211 1076.47 505.119 1066.15 507.658 C 1027.74 517.101 1022.44 468.33 1034.39 445.061 z"/>
<path transform="translate(0,0)" fill="rgb(211,57,0)" d="M 1087.1 602.809 C 1098.44 595.628 1108.66 587.258 1121.9 587.309 C 1124.21 597.073 1127.47 609.828 1128.17 619.635 C 1128.11 633.48 1128.82 647.396 1128.72 661.543 C 1123.12 661.455 1116.48 661.763 1110.79 661.895 L 1110.83 605.054 C 1106.8 607.139 1099.42 611.991 1095.3 614.53 L 1087.1 602.809 z"/>
<path transform="translate(0,0)" fill="rgb(211,57,0)" d="M 1029.11 754.053 C 1044.03 742.219 1049.14 739.538 1067.9 740.101 C 1067.67 749.66 1067.73 762.994 1067.08 772.266 C 1056.48 769.809 1052.16 767.776 1041.95 763.548 C 1041.8 763.228 1030.76 755.521 1029.11 754.053 z"/>
<path transform="translate(0,0)" fill="url(#Gradient20)" d="M 1046.2 270.87 C 1067.48 271.395 1089.24 276.931 1109.51 283.009 C 1123.52 285.842 1131.02 292.439 1143.43 298.12 L 1155.73 305.464 C 1162.71 310.667 1170.11 316.003 1176.89 321.411 C 1181.31 325.421 1186.61 330.5 1191.17 334.147 C 1201.26 345.691 1224.09 372.324 1229.67 385.765 C 1243.61 409.442 1246.21 420.605 1256.26 443.514 C 1257.41 447.603 1258.54 452.456 1260.64 456.056 C 1263.43 467.72 1267.39 483.788 1270.91 495.106 C 1271.57 500.409 1271.86 502.04 1273.55 507.075 C 1288.19 581.768 1315.24 655.788 1296.07 732.984 C 1294.94 737.505 1292 751.915 1292.06 756.123 L 1290.07 757.794 C 1287.38 760.674 1286.07 763.165 1284.24 766.604 C 1276.07 781.878 1268.77 795.894 1256.23 808.206 C 1230.57 839.753 1179.29 857.466 1140.51 863.987 C 1115.82 867.957 1090.77 869.15 1065.82 867.544 L 1065.53 866.144 C 1058.71 864.771 1044.28 864.444 1039.01 862.357 C 1038.14 860.009 1039.06 845.278 1038.91 841.15 C 1038.44 827.644 1032.73 772.979 1035.86 763.23 C 1038.59 762.794 1039.18 763.046 1041.95 763.548 C 1052.16 767.776 1056.48 769.809 1067.08 772.266 C 1071.86 773.198 1075.04 773.588 1079.9 774.021 C 1079.31 766.973 1081.13 757.398 1084.71 751.244 C 1088.16 745.192 1093.91 740.8 1100.66 739.074 C 1119.8 734.073 1130.67 747.203 1134.51 764.206 C 1137.02 763.132 1138.87 761.501 1141.03 759.836 C 1134.41 753.09 1148.96 748.361 1154.13 745.839 C 1149.82 708.274 1139.89 671.472 1132.15 634.509 C 1131.07 629.363 1129.84 624.617 1128.17 619.635 C 1127.47 609.828 1124.21 597.073 1121.9 587.309 C 1113.24 549.319 1106 515.223 1083.99 482.298 C 1078.85 474.713 1073.89 469.645 1067.02 463.734 C 1061.75 457.901 1055.27 454.295 1048.44 450.652 C 1044.33 448.683 1038.74 446.727 1034.39 445.061 C 1004.73 437.078 960.159 442.182 939.86 467.775 C 935.098 442.947 939.939 404.789 958.98 386.234 C 978.585 367.13 1002.55 363.936 1028.64 363.867 C 1027.94 363.583 1027.32 363.348 1026.6 363.098 L 1025.7 362.793 C 1021.02 361.143 1014.27 361.891 1009.1 362.085 C 1007.9 334.287 1004.39 299.663 1006.55 272.49 C 1015.31 272.409 1039.93 273.923 1046.2 270.87 z M 1117.84 770.371 C 1116.79 764.228 1115.58 751.262 1107.27 751.819 C 1098.29 752.421 1097.73 768.232 1097.18 774.251 C 1104.37 773.133 1110.71 771.883 1117.84 770.371 z"/>
<path transform="translate(0,0)" fill="rgb(44,54,87)" d="M 1028.64 363.867 C 1095.21 370.02 1117.19 426.289 1131.78 483.929 C 1132.84 488.118 1136.28 507.029 1137.84 509.607 C 1142.43 537.157 1150.77 568.816 1156.61 596.468 C 1164.98 636.117 1183.57 707.026 1158.02 743.325 C 1157.09 744.631 1156.12 745.909 1155.12 747.155 L 1154.13 745.839 C 1149.82 708.274 1139.89 671.472 1132.15 634.509 C 1131.07 629.363 1129.84 624.617 1128.17 619.635 C 1127.47 609.828 1124.21 597.073 1121.9 587.309 C 1113.24 549.319 1106 515.223 1083.99 482.298 C 1078.85 474.713 1073.89 469.645 1067.02 463.734 C 1061.75 457.901 1055.27 454.295 1048.44 450.652 C 1044.33 448.683 1038.74 446.727 1034.39 445.061 C 1004.73 437.078 960.159 442.182 939.86 467.775 C 935.098 442.947 939.939 404.789 958.98 386.234 C 978.585 367.13 1002.55 363.936 1028.64 363.867 z"/>
<path transform="translate(0,0)" fill="url(#Gradient19)" d="M 1229.67 385.765 C 1243.61 409.442 1246.21 420.605 1256.26 443.514 C 1257.41 447.603 1258.54 452.456 1260.64 456.056 C 1263.43 467.72 1267.39 483.788 1270.91 495.106 C 1271.57 500.409 1271.86 502.04 1273.55 507.075 C 1288.19 581.768 1315.24 655.788 1296.07 732.984 C 1294.94 737.505 1292 751.915 1292.06 756.123 L 1290.07 757.794 C 1287.38 760.674 1286.07 763.165 1284.24 766.604 C 1276.07 781.878 1268.77 795.894 1256.23 808.206 L 1255 806.829 C 1252.82 791.556 1251.92 764.944 1250.82 748.706 L 1242.3 601.818 L 1234.89 480.353 C 1233.36 458.336 1230.5 436.209 1230.8 414.09 C 1230.89 407.003 1228.31 391.355 1229.67 385.765 z"/>
<path transform="translate(0,0)" fill="url(#Gradient18)" d="M 1046.2 270.87 C 1067.48 271.395 1089.24 276.931 1109.51 283.009 C 1113.38 286.355 1126.04 292.821 1130.88 294.343 C 1129.1 313.493 1130.8 335.625 1131.78 354.829 C 1133.74 393.242 1137.42 431.727 1139.37 470.146 C 1139.74 477.445 1143.89 515.036 1141.48 519.422 C 1140.72 514.98 1140.69 513.014 1137.84 509.607 C 1136.28 507.029 1132.84 488.118 1131.78 483.929 C 1117.19 426.289 1095.21 370.02 1028.64 363.867 C 1027.94 363.583 1027.32 363.348 1026.6 363.098 L 1025.7 362.793 C 1021.02 361.143 1014.27 361.891 1009.1 362.085 C 1007.9 334.287 1004.39 299.663 1006.55 272.49 C 1015.31 272.409 1039.93 273.923 1046.2 270.87 z"/>
<path transform="translate(0,0)" fill="url(#Gradient17)" d="M 1079.9 774.021 C 1079.31 766.973 1081.13 757.398 1084.71 751.244 C 1088.16 745.192 1093.91 740.8 1100.66 739.074 C 1119.8 734.073 1130.67 747.203 1134.51 764.206 C 1137.02 763.132 1138.87 761.501 1141.03 759.836 L 1143.59 759.354 C 1148.77 759.14 1153.13 753.539 1156.29 749.873 C 1157.8 755.51 1157.44 777.189 1157.87 784.988 C 1159.05 806.493 1163.07 835.878 1162.2 856.955 C 1156.02 860.778 1147.28 858.302 1140.51 863.987 C 1115.82 867.957 1090.77 869.15 1065.82 867.544 L 1065.53 866.144 C 1058.71 864.771 1044.28 864.444 1039.01 862.357 C 1038.14 860.009 1039.06 845.278 1038.91 841.15 C 1038.44 827.644 1032.73 772.979 1035.86 763.23 C 1038.59 762.794 1039.18 763.046 1041.95 763.548 C 1052.16 767.776 1056.48 769.809 1067.08 772.266 C 1071.86 773.198 1075.04 773.588 1079.9 774.021 z M 1117.84 770.371 C 1116.79 764.228 1115.58 751.262 1107.27 751.819 C 1098.29 752.421 1097.73 768.232 1097.18 774.251 C 1104.37 773.133 1110.71 771.883 1117.84 770.371 z"/>
<path transform="translate(0,0)" fill="rgb(211,57,0)" d="M 1079.9 774.021 C 1079.31 766.973 1081.13 757.398 1084.71 751.244 C 1088.16 745.192 1093.91 740.8 1100.66 739.074 C 1119.8 734.073 1130.67 747.203 1134.51 764.206 C 1127.74 767.603 1125.06 768.346 1117.84 770.371 C 1116.79 764.228 1115.58 751.262 1107.27 751.819 C 1098.29 752.421 1097.73 768.232 1097.18 774.251 C 1093.27 773.906 1084.16 774.06 1079.9 774.021 z"/>
<path transform="translate(0,0)" fill="rgb(211,57,0)" d="M 1141.03 759.836 C 1134.41 753.09 1148.96 748.361 1154.13 745.839 L 1155.12 747.155 C 1152.07 751.274 1144.19 758.424 1143.59 759.354 L 1141.03 759.836 z"/>
<path transform="translate(0,0)" fill="url(#Gradient16)" d="M 850.099 331.575 C 852.38 335.984 850.494 344.419 850.74 349.726 C 853.079 400.187 857.062 450.533 860.282 500.936 L 868.763 641.992 L 872.405 699.279 C 872.974 707.971 874.79 727.915 873.596 735.996 C 867.023 729.584 856.257 692.995 853.128 689.448 C 853.667 694.476 859.45 708.691 861.485 713.711 C 877.729 753.786 902.974 792.24 936.942 819.529 C 974.451 849.663 1018.17 864.328 1065.82 867.544 C 1090.77 869.15 1115.82 867.957 1140.51 863.987 C 1179.29 857.466 1230.57 839.753 1256.23 808.206 C 1268.77 795.894 1276.07 781.878 1284.24 766.604 C 1286.07 763.165 1287.38 760.674 1290.07 757.794 L 1292.06 756.123 C 1298.45 774.112 1298.32 802.113 1280.09 813.223 C 1264.12 855.268 1261.36 867.661 1226.98 899.49 C 1222.19 902.831 1214.67 908.397 1209.86 911.219 C 1200.25 916.903 1192.67 920.783 1182.74 925.654 C 1172.08 928.894 1166.01 932.923 1156.4 938.213 C 1155.11 938.927 1147.4 937.427 1145.61 937.748 C 1141.7 938.075 1138.04 938.953 1134.23 939.822 L 1114.69 943.437 C 1109.71 943.908 1103.83 944.317 1098.94 944.939 C 1087.03 945.326 1070.84 946.655 1059.5 946.044 C 1013.85 943.582 968.462 931.534 931.246 904.545 C 855.922 849.92 831.689 764.969 814.571 678.601 C 809.179 651.395 802.685 623.949 797.611 596.62 C 785.523 540.849 795.437 495.936 806.193 441.97 C 816.399 390.765 819.564 374.445 850.099 331.575 z"/>
<path transform="translate(0,0)" fill="rgb(211,57,0)" d="M 1292.06 756.123 C 1298.45 774.112 1298.32 802.113 1280.09 813.223 C 1280.09 801.976 1289.47 772.549 1290.07 757.794 L 1292.06 756.123 z"/>
<path transform="translate(0,0)" fill="url(#Gradient15)" d="M 1660.74 208.908 C 1670.58 207.187 1690.27 205.065 1700.42 204.592 C 1702.32 222.301 1713.33 263.901 1717.54 283.049 C 1720.51 297.437 1726.33 320.119 1728.33 333.395 L 1731.63 345.538 C 1732.56 354.618 1736.53 370.27 1738.69 379.942 L 1752.66 442.531 L 1755.79 456.164 C 1759.2 471.812 1762.63 489.199 1766.68 504.557 L 1766.99 507.476 C 1770.68 523.262 1775.64 550.344 1780.16 564.778 C 1786.36 563.605 1789.2 563.23 1795.54 562.834 C 1798.87 562.154 1802.13 562.079 1805.53 561.878 C 1821.77 559.053 1839.35 558.646 1855.45 556.215 C 1857.62 565.943 1859.99 578.041 1862.64 587.473 C 1912.06 575.769 1910.58 655.638 1879.41 662.738 C 1877.4 663.187 1875.35 663.498 1873.29 663.668 C 1868.48 684.51 1864.47 705.884 1859.95 726.844 C 1845.47 728.119 1831.02 729.6 1816.58 731.288 C 1817.75 736.472 1819.6 743.661 1820.07 748.786 C 1820.44 753.707 1822.19 757.673 1823.9 762.273 C 1825.02 767.979 1826.75 775.689 1827.55 781.283 C 1827.76 787.58 1814.47 847.483 1812.4 859.65 C 1797.94 861.868 1780.14 863.305 1765.42 864.891 L 1678.52 874.243 C 1673.07 842.437 1663.02 807.721 1657.23 775.617 C 1656.32 770.55 1652.03 761.113 1650.51 755.917 C 1650.24 754.994 1652.35 754.82 1651.66 750.262 C 1649.11 748.864 1643.87 749.783 1640.69 750.061 C 1649.63 768.67 1651.13 803.179 1629.39 813.297 C 1622.9 816.284 1615.48 816.545 1608.8 814.02 C 1586.48 805.661 1588.36 773.821 1593.74 755.17 L 1580.32 756.65 C 1584.17 776.98 1586.3 810.319 1559.4 815.484 C 1552.75 816.737 1545.87 815.324 1540.25 811.549 C 1525.17 801.284 1525.21 778.175 1527.94 762.019 L 1518.22 763.095 C 1519.17 778.598 1520.68 795.228 1509.65 807.875 C 1500.19 818.734 1484.3 819.683 1473.98 809.438 C 1463.71 799.243 1463.04 785.438 1462.99 771.892 C 1462.99 770.908 1462.99 769.925 1463 768.942 L 1451 770.238 L 1433.07 772.175 C 1424.33 773.243 1416.09 774.205 1407.32 774.885 C 1409.89 786.473 1404.05 804.592 1393.93 811.514 C 1388.09 815.459 1380.89 816.858 1374 815.39 C 1345.32 809.343 1344.67 755.229 1366.02 741.571 C 1364.03 736.815 1355.51 711.163 1355.9 707.161 C 1358.43 681.462 1365.25 654.215 1371.36 629.003 C 1372.76 623.205 1378.81 611.408 1381.58 605.531 C 1376.9 608.609 1372.05 611.471 1367.25 614.36 C 1364.65 611.068 1361.55 606.325 1359.08 602.8 C 1366.26 598.367 1379.79 589.483 1387.14 587.066 L 1389.35 586.909 C 1393.14 583.748 1424.92 514.934 1428.55 506.126 L 1434.65 493.942 L 1445.96 470.356 C 1447.26 467.998 1449.84 461.124 1450.97 458.333 C 1454.77 451.923 1456.95 446.773 1459.93 439.943 C 1463.46 434.322 1470.67 418.32 1473.72 411.883 L 1499.8 356.739 C 1500.67 353.227 1507.9 339.447 1509.89 335.067 C 1513.94 327.794 1518.84 316.678 1522.55 308.926 C 1523.39 306.335 1524.41 303.742 1525.36 301.188 C 1526.95 299.673 1528.07 296.155 1528.95 293.969 C 1530.44 289.319 1563.51 222.545 1565.47 220.194 C 1568.91 216.045 1588.54 216.038 1594.36 215.789 C 1598.6 214.194 1654.71 208.677 1660.74 208.908 z M 1539.59 589.516 C 1543.72 588.031 1601.94 583.251 1609.37 583.006 L 1614.11 582.216 C 1608.83 558.02 1603.67 532.672 1597.65 508.731 C 1594.41 490.288 1589.59 471.448 1586 452.839 C 1581.35 461.54 1577.14 470.466 1573.37 479.582 C 1555.03 515.875 1538.71 556.774 1520.33 592.377 C 1527.31 591.595 1532.7 590.836 1539.59 589.516 z M 1593.74 755.17 C 1588.36 773.821 1586.48 805.661 1608.8 814.02 C 1615.48 816.545 1622.9 816.284 1629.39 813.297 C 1651.13 803.179 1649.63 768.67 1640.69 750.061 C 1643.87 749.783 1649.11 748.864 1651.66 750.262 C 1652.35 754.82 1650.24 754.994 1650.51 755.917 C 1652.03 761.113 1656.32 770.55 1657.23 775.617 C 1663.02 807.721 1673.07 842.437 1678.52 874.243 L 1765.42 864.891 C 1780.14 863.305 1797.94 861.868 1812.4 859.65 C 1814.47 847.483 1827.76 787.58 1827.55 781.283 C 1825.04 783.319 1819.22 783.369 1815.47 783.826 C 1788.85 786.5 1762.25 789.334 1735.66 792.326 C 1726.76 793.293 1704.32 796.233 1696.65 795.991 L 1695.8 796.373 C 1693.61 794.097 1670.04 684.573 1667.4 671.505 C 1652.3 672.752 1636.33 674.679 1621.18 676.246 C 1600.58 678.516 1565.33 681.099 1546.28 684.376 C 1530.38 686.093 1424.08 699.185 1414.28 697.243 C 1420.13 696.855 1451.59 693.508 1457.61 692.238 C 1458.3 687.123 1455.27 644.114 1454.77 636.358 L 1446.15 505.607 C 1445.44 494.956 1446.85 478.847 1446.07 471.333 L 1445.96 470.356 L 1434.65 493.942 L 1428.55 506.126 C 1424.92 514.934 1393.14 583.748 1389.35 586.909 L 1387.14 587.066 C 1379.79 589.483 1366.26 598.367 1359.08 602.8 C 1361.55 606.325 1364.65 611.068 1367.25 614.36 C 1372.05 611.471 1376.9 608.609 1381.58 605.531 C 1378.81 611.408 1372.76 623.205 1371.36 629.003 C 1365.25 654.215 1358.43 681.462 1355.9 707.161 C 1355.51 711.163 1364.03 736.815 1366.02 741.571 C 1344.67 755.229 1345.32 809.343 1374 815.39 C 1380.89 816.858 1388.09 815.459 1393.93 811.514 C 1404.05 804.592 1409.89 786.473 1407.32 774.885 C 1416.09 774.205 1424.33 773.243 1433.07 772.175 L 1451 770.238 L 1463 768.942 C 1462.99 769.925 1462.99 770.908 1462.99 771.892 C 1463.04 785.438 1463.71 799.243 1473.98 809.438 C 1484.3 819.683 1500.19 818.734 1509.65 807.875 C 1520.68 795.228 1519.17 778.598 1518.22 763.095 L 1527.94 762.019 C 1525.21 778.175 1525.17 801.284 1540.25 811.549 C 1545.87 815.324 1552.75 816.737 1559.4 815.484 C 1586.3 810.319 1584.17 776.98 1580.32 756.65 L 1593.74 755.17 z M 1865.63 600.816 C 1868.64 617.065 1872.71 634.072 1876.34 650.273 C 1884.27 642.653 1886.72 607.843 1876.27 600.426 C 1873.63 598.551 1868.75 600.053 1865.63 600.816 z"/>
<path transform="translate(0,0)" fill="rgb(211,57,0)" fill-opacity="0.843137" d="M 1573.37 479.582 C 1577.14 470.466 1581.35 461.54 1586 452.839 C 1589.59 471.448 1594.41 490.288 1597.65 508.731 C 1580.48 506.097 1576.09 494.912 1573.37 479.582 z"/>
<path transform="translate(0,0)" fill="url(#Gradient14)" d="M 1445.96 470.356 L 1446.07 471.333 C 1446.85 478.847 1445.44 494.956 1446.15 505.607 L 1454.77 636.358 C 1455.27 644.114 1458.3 687.123 1457.61 692.238 C 1451.59 693.508 1420.13 696.855 1414.28 697.243 C 1424.08 699.185 1530.38 686.093 1546.28 684.376 C 1565.33 681.099 1600.58 678.516 1621.18 676.246 C 1636.33 674.679 1652.3 672.752 1667.4 671.505 C 1670.04 684.573 1693.61 794.097 1695.8 796.373 L 1696.65 795.991 C 1704.32 796.233 1726.76 793.293 1735.66 792.326 C 1762.25 789.334 1788.85 786.5 1815.47 783.826 C 1819.22 783.369 1825.04 783.319 1827.55 781.283 C 1827.76 787.58 1814.47 847.483 1812.4 859.65 C 1797.94 861.868 1780.14 863.305 1765.42 864.891 L 1678.52 874.243 C 1673.07 842.437 1663.02 807.721 1657.23 775.617 C 1656.32 770.55 1652.03 761.113 1650.51 755.917 C 1650.24 754.994 1652.35 754.82 1651.66 750.262 C 1649.11 748.864 1643.87 749.783 1640.69 750.061 C 1649.63 768.67 1651.13 803.179 1629.39 813.297 C 1622.9 816.284 1615.48 816.545 1608.8 814.02 C 1586.48 805.661 1588.36 773.821 1593.74 755.17 L 1580.32 756.65 C 1584.17 776.98 1586.3 810.319 1559.4 815.484 C 1552.75 816.737 1545.87 815.324 1540.25 811.549 C 1525.17 801.284 1525.21 778.175 1527.94 762.019 L 1518.22 763.095 C 1519.17 778.598 1520.68 795.228 1509.65 807.875 C 1500.19 818.734 1484.3 819.683 1473.98 809.438 C 1463.71 799.243 1463.04 785.438 1462.99 771.892 C 1462.99 770.908 1462.99 769.925 1463 768.942 L 1451 770.238 L 1433.07 772.175 C 1424.33 773.243 1416.09 774.205 1407.32 774.885 C 1409.89 786.473 1404.05 804.592 1393.93 811.514 C 1388.09 815.459 1380.89 816.858 1374 815.39 C 1345.32 809.343 1344.67 755.229 1366.02 741.571 C 1364.03 736.815 1355.51 711.163 1355.9 707.161 C 1358.43 681.462 1365.25 654.215 1371.36 629.003 C 1372.76 623.205 1378.81 611.408 1381.58 605.531 C 1376.9 608.609 1372.05 611.471 1367.25 614.36 C 1364.65 611.068 1361.55 606.325 1359.08 602.8 C 1366.26 598.367 1379.79 589.483 1387.14 587.066 L 1389.35 586.909 C 1393.14 583.748 1424.92 514.934 1428.55 506.126 L 1434.65 493.942 L 1445.96 470.356 z M 1623.86 751.95 L 1611.86 753.128 L 1611.71 753.668 C 1608.54 765.483 1608.9 771.443 1608.43 783.544 C 1607.87 797.824 1618.67 810.986 1626.8 794.067 C 1631.26 784.784 1628.14 761.859 1623.86 751.95 z M 1562.84 758.079 C 1557.21 758.883 1551.57 759.616 1545.92 760.277 C 1544.19 769.695 1541.59 799.849 1554.59 802.261 C 1568.76 799.746 1564.6 768.335 1562.84 758.079 z M 1500.27 765.126 L 1481.52 767.138 C 1481.92 770.578 1477.99 814.257 1496.48 800.446 C 1501.88 796.405 1500.56 773.182 1500.27 765.126 z M 1389.73 776.763 L 1376.7 778.456 C 1375.16 772.117 1372.86 765.927 1370.71 759.76 C 1369.53 770.427 1366.34 799.931 1379.99 803.327 C 1388.8 800.202 1389.15 784.606 1389.73 776.763 z"/>
<path transform="translate(0,0)" fill="rgb(211,57,0)" d="M 1623.86 751.95 C 1626.84 751.039 1637.06 750.38 1640.69 750.061 C 1649.63 768.67 1651.13 803.179 1629.39 813.297 C 1622.9 816.284 1615.48 816.545 1608.8 814.02 C 1586.48 805.661 1588.36 773.821 1593.74 755.17 C 1600.12 754.702 1604.52 753.251 1611.86 753.128 L 1611.71 753.668 C 1608.54 765.483 1608.9 771.443 1608.43 783.544 C 1607.87 797.824 1618.67 810.986 1626.8 794.067 C 1631.26 784.784 1628.14 761.859 1623.86 751.95 z"/>
<path transform="translate(0,0)" fill="rgb(211,57,0)" d="M 1562.84 758.079 L 1580.32 756.65 C 1584.17 776.98 1586.3 810.319 1559.4 815.484 C 1552.75 816.737 1545.87 815.324 1540.25 811.549 C 1525.17 801.284 1525.21 778.175 1527.94 762.019 L 1545.92 760.277 C 1544.19 769.695 1541.59 799.849 1554.59 802.261 C 1568.76 799.746 1564.6 768.335 1562.84 758.079 z"/>
<path transform="translate(0,0)" fill="rgb(211,57,0)" d="M 1407.32 774.885 C 1409.89 786.473 1404.05 804.592 1393.93 811.514 C 1388.09 815.459 1380.89 816.858 1374 815.39 C 1345.32 809.343 1344.67 755.229 1366.02 741.571 C 1367.74 747.238 1370.08 753.973 1370.71 759.76 C 1369.53 770.427 1366.34 799.931 1379.99 803.327 C 1388.8 800.202 1389.15 784.606 1389.73 776.763 C 1395.59 776.087 1401.45 775.461 1407.32 774.885 z"/>
<path transform="translate(0,0)" fill="rgb(211,57,0)" d="M 1500.27 765.126 L 1518.22 763.095 C 1519.17 778.598 1520.68 795.228 1509.65 807.875 C 1500.19 818.734 1484.3 819.683 1473.98 809.438 C 1463.71 799.243 1463.04 785.438 1462.99 771.892 C 1462.99 770.908 1462.99 769.925 1463 768.942 L 1481.52 767.138 C 1481.92 770.578 1477.99 814.257 1496.48 800.446 C 1501.88 796.405 1500.56 773.182 1500.27 765.126 z"/>
<path transform="translate(0,0)" fill="rgb(211,57,0)" d="M 1387.14 587.066 L 1388.86 588.649 C 1388.77 593.986 1384.33 600.801 1381.58 605.531 C 1376.9 608.609 1372.05 611.471 1367.25 614.36 C 1364.65 611.068 1361.55 606.325 1359.08 602.8 C 1366.26 598.367 1379.79 589.483 1387.14 587.066 z"/>
<path transform="translate(0,0)" fill="url(#Gradient13)" d="M 1660.74 208.908 C 1670.58 207.187 1690.27 205.065 1700.42 204.592 C 1702.32 222.301 1713.33 263.901 1717.54 283.049 C 1720.51 297.437 1726.33 320.119 1728.33 333.395 L 1731.63 345.538 C 1732.56 354.618 1736.53 370.27 1738.69 379.942 L 1752.66 442.531 L 1755.79 456.164 C 1759.2 471.812 1762.63 489.199 1766.68 504.557 L 1766.99 507.476 C 1770.68 523.262 1775.64 550.344 1780.16 564.778 C 1786.36 563.605 1789.2 563.23 1795.54 562.834 C 1798.87 562.154 1802.13 562.079 1805.53 561.878 C 1821.77 559.053 1839.35 558.646 1855.45 556.215 C 1857.62 565.943 1859.99 578.041 1862.64 587.473 C 1912.06 575.769 1910.58 655.638 1879.41 662.738 C 1877.4 663.187 1875.35 663.498 1873.29 663.668 C 1868.48 684.51 1864.47 705.884 1859.95 726.844 C 1845.47 728.119 1831.02 729.6 1816.58 731.288 C 1817.75 736.472 1819.6 743.661 1820.07 748.786 C 1820.44 753.707 1822.19 757.673 1823.9 762.273 C 1825.02 767.979 1826.75 775.689 1827.55 781.283 C 1825.04 783.319 1819.22 783.369 1815.47 783.826 C 1788.85 786.5 1762.25 789.334 1735.66 792.326 C 1726.76 793.293 1704.32 796.233 1696.65 795.991 C 1701.46 791.207 1703.38 795.451 1709.07 792.59 C 1708.17 794.267 1698.67 620.263 1697.66 604.344 L 1684.93 402.002 C 1682.33 356.093 1679.42 310.201 1676.07 264.343 C 1674.78 246.533 1675.33 227.818 1675.06 209.859 C 1669.89 208.652 1667.08 212.155 1660.74 208.908 z M 1876.34 650.273 C 1884.27 642.653 1886.72 607.843 1876.27 600.426 C 1873.63 598.551 1868.75 600.053 1865.63 600.816 C 1868.64 617.065 1872.71 634.072 1876.34 650.273 z"/>
<path transform="translate(0,0)" fill="url(#Gradient12)" d="M 1805.53 561.878 C 1821.77 559.053 1839.35 558.646 1855.45 556.215 C 1857.62 565.943 1859.99 578.041 1862.64 587.473 C 1912.06 575.769 1910.58 655.638 1879.41 662.738 C 1877.4 663.187 1875.35 663.498 1873.29 663.668 C 1868.48 684.51 1864.47 705.884 1859.95 726.844 C 1845.47 728.119 1831.02 729.6 1816.58 731.288 C 1815.3 724.969 1813.59 718.852 1811.92 712.627 C 1812.28 705.869 1801.88 667.234 1800.02 657.095 L 1812.18 655.733 L 1806.83 654.789 C 1804.28 630.514 1802.86 588.716 1802.1 563.616 L 1795.54 562.834 C 1798.87 562.154 1802.13 562.079 1805.53 561.878 z M 1876.34 650.273 C 1884.27 642.653 1886.72 607.843 1876.27 600.426 C 1873.63 598.551 1868.75 600.053 1865.63 600.816 C 1868.64 617.065 1872.71 634.072 1876.34 650.273 z"/>
<path transform="translate(0,0)" fill="rgb(99,108,134)" d="M 1795.54 562.834 C 1798.87 562.154 1802.13 562.079 1805.53 561.878 C 1808.47 562.164 1813.16 562.16 1815.27 563.597 C 1820.06 576.721 1819.93 618.361 1821.67 633.986 C 1822.26 639.243 1821.69 647.221 1822.97 652.679 L 1830.41 653.037 L 1830.52 653.537 C 1824.41 654.339 1818.3 655.071 1812.18 655.733 L 1806.83 654.789 C 1804.28 630.514 1802.86 588.716 1802.1 563.616 L 1795.54 562.834 z"/>
<path transform="translate(0,0)" fill="rgb(211,57,0)" d="M 1862.64 587.473 C 1912.06 575.769 1910.58 655.638 1879.41 662.738 C 1877.4 663.187 1875.35 663.498 1873.29 663.668 C 1873.69 659.278 1874.61 654.312 1876.34 650.273 C 1884.27 642.653 1886.72 607.843 1876.27 600.426 C 1873.63 598.551 1868.75 600.053 1865.63 600.816 C 1863.41 598.048 1863.13 591.367 1862.64 587.473 z"/>
<path transform="translate(0,0)" fill="rgb(99,108,134)" d="M 1811.92 712.627 C 1813.59 718.852 1815.3 724.969 1816.58 731.288 C 1817.75 736.472 1819.6 743.661 1820.07 748.786 C 1820.44 753.707 1822.19 757.673 1823.9 762.273 C 1825.02 767.979 1826.75 775.689 1827.55 781.283 C 1825.04 783.319 1819.22 783.369 1815.47 783.826 C 1815.62 778.429 1815.68 773.108 1815.34 767.799 C 1814.62 756.626 1807.39 721.634 1811.92 712.627 z"/>
<path transform="translate(0,0)" fill="url(#Gradient11)" d="M 1522.55 308.926 L 1524.22 309.893 C 1523.07 316.361 1522.62 320.923 1523.22 327.534 C 1528.34 383.13 1533.16 438.348 1534.6 494.192 C 1534.73 498.947 1534.62 503.466 1535.11 508.222 C 1536.02 509.447 1536.44 510.145 1537.57 511.201 C 1528.37 535.303 1510.17 569.635 1499.13 594.323 C 1506.27 593.76 1513.22 593.229 1520.33 592.377 C 1527.31 591.595 1532.7 590.836 1539.59 589.516 C 1541 590.113 1542.33 590.772 1543.82 591.055 L 1544.43 592.978 C 1544.25 593.274 1544.05 593.565 1543.88 593.866 C 1538.04 603.892 1549.87 675.906 1542.92 682.741 L 1540.41 683.214 C 1542.8 685.341 1542.4 683.461 1546.28 684.376 C 1530.38 686.093 1424.08 699.185 1414.28 697.243 C 1420.13 696.855 1451.59 693.508 1457.61 692.238 C 1458.3 687.123 1455.27 644.114 1454.77 636.358 L 1446.15 505.607 C 1445.44 494.956 1446.85 478.847 1446.07 471.333 L 1445.96 470.356 C 1447.26 467.998 1449.84 461.124 1450.97 458.333 C 1454.77 451.923 1456.95 446.773 1459.93 439.943 C 1463.46 434.322 1470.67 418.32 1473.72 411.883 L 1499.8 356.739 C 1500.67 353.227 1507.9 339.447 1509.89 335.067 C 1513.94 327.794 1518.84 316.678 1522.55 308.926 z"/>
<path transform="translate(0,0)" fill="url(#Gradient10)" d="M 1528.95 293.969 C 1530.44 289.319 1563.51 222.545 1565.47 220.194 C 1568.91 216.045 1588.54 216.038 1594.36 215.789 C 1587.59 223.001 1576.07 212.381 1575.57 226.913 C 1575.08 241.167 1577.17 254.405 1577.97 268.513 L 1582.92 356.407 C 1583.75 370.362 1585.57 387.967 1585.64 401.593 C 1588.03 401.719 1587.02 400.181 1589.46 400.13 C 1583.96 415.393 1568.67 444.885 1561.56 460.585 C 1556.48 471.806 1542.64 502.713 1537.57 511.201 C 1536.44 510.145 1536.02 509.447 1535.11 508.222 C 1534.62 503.466 1534.73 498.947 1534.6 494.192 C 1533.16 438.348 1528.34 383.13 1523.22 327.534 C 1522.62 320.923 1523.07 316.361 1524.22 309.893 L 1522.55 308.926 C 1523.39 306.335 1524.41 303.742 1525.36 301.188 C 1526.95 299.673 1528.07 296.155 1528.95 293.969 z"/>
<path transform="translate(0,0)" fill="rgb(44,54,87)" d="M 1601.38 375.252 C 1617.5 442.461 1631.07 511.301 1646.67 578.737 C 1635.85 580.146 1624.99 581.305 1614.11 582.216 C 1608.83 558.02 1603.67 532.672 1597.65 508.731 C 1594.41 490.288 1589.59 471.448 1586 452.839 C 1581.35 461.54 1577.14 470.466 1573.37 479.582 C 1555.03 515.875 1538.71 556.774 1520.33 592.377 C 1513.22 593.229 1506.27 593.76 1499.13 594.323 C 1510.17 569.635 1528.37 535.303 1537.57 511.201 C 1542.64 502.713 1556.48 471.806 1561.56 460.585 C 1568.67 444.885 1583.96 415.393 1589.46 400.13 C 1593.64 391.936 1597.61 383.641 1601.38 375.252 z"/>
<path transform="translate(0,0)" fill="url(#Gradient9)" d="M 1539.59 589.516 C 1543.72 588.031 1601.94 583.251 1609.37 583.006 C 1605.69 585.382 1601.06 585.789 1598.67 588.035 C 1596.26 609.181 1602.77 636.626 1601.43 658.524 C 1601.27 661.163 1601.54 674.431 1601.97 676.33 C 1606.63 674.496 1616.35 675.023 1621.18 676.246 C 1600.58 678.516 1565.33 681.099 1546.28 684.376 C 1542.4 683.461 1542.8 685.341 1540.41 683.214 L 1542.92 682.741 C 1549.87 675.906 1538.04 603.892 1543.88 593.866 C 1544.05 593.565 1544.25 593.274 1544.43 592.978 L 1543.82 591.055 C 1542.33 590.772 1541 590.113 1539.59 589.516 z"/>
<path transform="translate(0,0)" fill="url(#Gradient8)" d="M 622.959 329.97 C 626.117 349.359 632.118 373.55 636.386 392.993 L 660.901 504.937 L 686.308 621.368 C 690.242 639.363 694.668 663.213 699.337 680.299 C 705.386 679.24 713.51 677.884 719.653 677.898 C 737.75 675.301 756.96 673.766 775.257 671.717 C 780.707 701.342 791.15 736.625 794.214 765.705 C 794.924 772.44 781.824 833.886 779.365 841.791 C 773.019 842.122 739.357 844.681 735.43 846.79 C 737.182 854.785 738.979 862.769 740.823 870.743 C 742.53 878.516 744.178 886.302 745.767 894.1 L 746.628 897.893 C 742.906 922.404 736.024 950.676 731.576 975.638 C 688.453 980.915 640.232 983.913 597.986 990.314 L 570.523 864.676 L 400.424 882.856 C 367.665 886.346 328.082 889.493 295.909 894.351 C 292.104 882.466 274.835 832.177 275.267 821.192 C 276.074 800.721 285.263 767.172 289.242 746.101 C 290.375 740.101 302.051 717.268 305.513 710.047 L 332.717 653.363 L 374.18 566.52 C 381.341 551.517 389.509 533.206 397.236 518.845 C 399.188 510.676 421.548 467.049 426.476 457.814 C 427.678 452.618 448.983 409.046 451.689 407.153 C 453.9 406.124 453.557 405.773 455.156 403.332 C 459.237 404.265 459.82 404.292 463.98 403.807 C 468.897 402.011 488.715 403.583 495.027 403.5 C 520.783 403.161 548.07 392 570.009 379.274 C 575.389 376.154 580.273 371.976 585.835 368.631 C 602.527 354.018 608.895 346.985 622.959 329.97 z M 534.475 697.661 C 530.465 683.562 526.666 663.228 523.486 648.577 C 517.534 621.734 511.786 594.845 506.242 567.914 L 457.475 671.216 C 455.575 675.253 441.824 703.641 441.398 706.507 L 443.222 707.489 C 473.585 703.718 504.006 700.441 534.475 697.661 z"/>
<path transform="translate(0,0)" fill="url(#Gradient7)" d="M 426.476 457.814 C 425.971 466.061 421.235 473.313 421.297 481.461 C 421.396 494.278 422.315 507.303 423.25 520.094 L 427.616 582.719 C 428.988 605.523 429.041 628.203 431.172 650.971 C 431.919 658.944 431.116 663.736 432.908 671.833 L 434.203 672.375 L 435.9 671.395 C 429.83 684.247 423.746 697.582 417.506 710.308 C 423.872 709.561 435.416 707.881 441.435 707.795 C 440.063 708.402 436.256 709.599 436.151 711.186 C 434.202 740.618 441.152 772.071 438.885 801.375 L 440.681 802.342 L 536.869 792.287 C 549.017 790.997 574.762 789.041 585.965 786.823 L 603.763 868.81 C 606.321 880.579 609.975 900.34 613.33 911.441 C 615.572 912.62 614.625 912.363 617.619 911.704 C 627.671 911.667 658.447 907.839 669.471 906.503 C 693.925 903.539 722.63 901.633 746.628 897.893 C 742.906 922.404 736.024 950.676 731.576 975.638 C 688.453 980.915 640.232 983.913 597.986 990.314 L 570.523 864.676 L 400.424 882.856 C 367.665 886.346 328.082 889.493 295.909 894.351 C 292.104 882.466 274.835 832.177 275.267 821.192 C 276.074 800.721 285.263 767.172 289.242 746.101 C 290.375 740.101 302.051 717.268 305.513 710.047 L 332.717 653.363 L 374.18 566.52 C 381.341 551.517 389.509 533.206 397.236 518.845 C 399.188 510.676 421.548 467.049 426.476 457.814 z"/>
<path transform="translate(0,0)" fill="rgb(124,132,156)" d="M 426.476 457.814 C 425.971 466.061 421.235 473.313 421.297 481.461 C 421.396 494.278 422.315 507.303 423.25 520.094 L 427.616 582.719 C 428.988 605.523 429.041 628.203 431.172 650.971 C 431.919 658.944 431.116 663.736 432.908 671.833 L 434.203 672.375 L 435.9 671.395 C 429.83 684.247 423.746 697.582 417.506 710.308 C 423.872 709.561 435.416 707.881 441.435 707.795 C 440.063 708.402 436.256 709.599 436.151 711.186 C 434.202 740.618 441.152 772.071 438.885 801.375 L 440.681 802.342 C 434.228 803.871 388.534 807.869 382.105 807.775 L 382.559 807.012 C 391.104 807.108 403.93 804.729 413.232 803.787 C 414.728 792.846 412.822 766.123 412.149 754.271 L 406.026 662.299 L 399.563 551.223 C 399.174 543.972 400.734 523.661 397.236 518.845 C 399.188 510.676 421.548 467.049 426.476 457.814 z"/>
<path transform="translate(0,0)" fill="url(#Gradient6)" d="M 622.959 329.97 C 626.117 349.359 632.118 373.55 636.386 392.993 L 660.901 504.937 L 686.308 621.368 C 690.242 639.363 694.668 663.213 699.337 680.299 C 705.386 679.24 713.51 677.884 719.653 677.898 C 737.75 675.301 756.96 673.766 775.257 671.717 C 780.707 701.342 791.15 736.625 794.214 765.705 C 794.924 772.44 781.824 833.886 779.365 841.791 C 773.019 842.122 739.357 844.681 735.43 846.79 C 737.182 854.785 738.979 862.769 740.823 870.743 C 742.53 878.516 744.178 886.302 745.767 894.1 L 746.628 897.893 C 722.63 901.633 693.925 903.539 669.471 906.503 C 658.447 907.839 627.671 911.667 617.619 911.704 C 621.238 909.039 629.69 908.758 634.299 908.451 C 631.712 893.833 630.2 850.441 629.377 834.677 L 623.11 730.195 C 617.808 624.843 609.286 518.523 602.768 413.193 C 601.798 397.511 604.015 374.434 599.466 359.877 C 594.896 363.235 591.316 367.279 585.835 368.631 C 602.527 354.018 608.895 346.985 622.959 329.97 z"/>
<path transform="translate(0,0)" fill="url(#Gradient5)" d="M 719.653 677.898 C 737.75 675.301 756.96 673.766 775.257 671.717 C 780.707 701.342 791.15 736.625 794.214 765.705 C 794.924 772.44 781.824 833.886 779.365 841.791 C 773.019 842.122 739.357 844.681 735.43 846.79 C 730.101 821.909 723.859 797.297 718.867 772.293 C 736.812 770.797 756.634 767.695 773.986 766.704 L 773.488 766.21 C 762.183 765.939 750.466 768.465 739.113 768.839 C 736.31 768.931 734.54 770.217 732.006 769.842 C 730.828 763.814 731.583 756.519 731.122 749.999 C 729.524 727.384 729.101 704.36 726.585 681.854 C 726.383 680.044 726.732 680.285 727.63 678.666 L 719.653 677.898 z"/>
<path transform="translate(0,0)" fill="rgb(99,108,134)" d="M 740.823 870.743 C 742.53 878.516 744.178 886.302 745.767 894.1 C 745.401 895.36 744.701 895.968 743.837 896.959 L 741.893 896.766 C 738.719 891.768 738.56 876.411 740.823 870.743 z"/>
<path transform="translate(0,0)" fill="rgb(44,54,87)" d="M 521.207 490.651 C 535.179 549.799 546.654 609.881 560.212 669.154 C 562.108 677.439 564.079 686.152 565.634 694.481 C 558.576 695.177 540.583 696.438 534.475 697.661 C 530.465 683.562 526.666 663.228 523.486 648.577 C 517.534 621.734 511.786 594.845 506.242 567.914 L 457.475 671.216 C 455.575 675.253 441.824 703.641 441.398 706.507 L 443.222 707.489 L 441.435 707.795 C 435.416 707.881 423.872 709.561 417.506 710.308 C 423.746 697.582 429.83 684.247 435.9 671.395 L 492.031 552.289 C 501.024 533.227 511.644 509.003 521.207 490.651 z"/>
<path transform="translate(0,0)" fill="url(#Gradient4)" d="M 344.786 332.9 C 330.401 320.652 317.457 283.057 314.308 264.39 C 307.129 219.954 317.992 174.491 344.484 138.101 C 371.643 99.9125 412.908 74.1286 459.137 66.4598 C 509.233 58.2452 547.73 70.3578 587.965 99.2277 C 592.174 96.1373 613.679 89.1245 620.069 86.9383 C 624.705 98.8356 629.588 112.974 634.434 124.445 C 629.624 126.234 622.596 128.608 618.112 130.718 C 645.078 162.946 657.937 204.673 653.787 246.489 C 650.911 278.294 640.399 303.544 622.959 329.97 C 608.895 346.985 602.527 354.018 585.835 368.631 C 580.273 371.976 575.389 376.154 570.009 379.274 C 548.07 392 520.783 403.161 495.027 403.5 C 488.715 403.583 468.897 402.011 463.98 403.807 C 459.82 404.292 459.237 404.265 455.156 403.332 C 453.557 405.773 453.9 406.124 451.689 407.153 L 452.001 404.428 C 450.676 401.706 448.708 402.104 445.576 401.428 C 421.117 396.15 403.168 386.888 382.453 372.783 C 362.611 395.604 339.232 419.713 317.972 441.414 C 260.747 499.825 205.971 562.013 148.6 620.076 L 139.583 612.828 L 136.636 609.774 C 132.946 606.802 127.244 600.794 123.709 597.28 C 121.639 595.316 121.301 594.98 119.925 592.49 C 120.416 589.413 134.898 575.041 137.939 571.827 L 182.534 524.657 L 352.963 343.911 C 350.554 340.411 347.368 336.37 344.786 332.9 z M 383.253 333.117 C 405.869 350.459 426.305 361.523 455.293 364.807 C 458.647 365.187 467.586 365.851 470.653 365.465 C 475.827 354.546 480.407 343.929 486.089 333.197 C 508.552 332.281 548.73 327.151 572.087 324.453 C 592.187 304.765 607.687 278.803 613.167 251.052 C 613.825 244.686 615.428 240.084 615.603 233.066 C 613.939 236.894 611.426 242.225 610.133 246.051 C 597.893 240.848 577.918 229.715 565.479 223.27 C 537.703 208.971 510.007 194.517 482.394 179.907 C 484.071 166.334 484.631 148.819 485.951 134.478 C 499.653 129.724 523.246 122.207 536.079 116.394 L 545.515 113.091 L 537.742 110.3 C 503.288 98.4005 464.732 102.215 432.141 118.032 C 397.077 135.112 370.232 165.418 357.508 202.287 C 346.169 235.121 347.529 272.331 362.888 303.672 C 366.367 310.665 370.258 317.446 374.541 323.977 C 377.399 326.535 380.599 330.223 383.253 333.117 z M 588.141 140.535 C 567.759 146.231 548.387 154.129 528.474 160.217 C 544.778 168.612 561.976 176.685 578.466 184.83 C 587.213 189.151 605.836 198.895 614.616 201.716 C 614.35 186.142 602.997 164.32 595.99 150.744 C 592.801 147.632 590.643 144.196 588.141 140.535 z"/>
<path transform="translate(0,0)" fill="rgb(224,231,244)" fill-opacity="0.596078" d="M 374.541 323.977 C 370.258 317.446 366.367 310.665 362.888 303.672 C 347.529 272.331 346.169 235.121 357.508 202.287 C 370.232 165.418 397.077 135.112 432.141 118.032 C 464.732 102.215 503.288 98.4005 537.742 110.3 C 535.728 112.734 536.35 111.963 535.734 115.459 L 536.079 116.394 C 523.246 122.207 499.653 129.724 485.951 134.478 C 484.631 148.819 484.071 166.334 482.394 179.907 C 510.007 194.517 537.703 208.971 565.479 223.27 C 577.918 229.715 597.893 240.848 610.133 246.051 C 611.509 248.006 612.215 248.878 613.167 251.052 C 607.687 278.803 592.187 304.765 572.087 324.453 C 548.73 327.151 508.552 332.281 486.089 333.197 C 480.407 343.929 475.827 354.546 470.653 365.465 C 467.586 365.851 458.647 365.187 455.293 364.807 C 426.305 361.523 405.869 350.459 383.253 333.117 C 380.599 330.223 377.399 326.535 374.541 323.977 z"/>
<path transform="translate(0,0)" fill="url(#Gradient3)" d="M 588.141 140.535 C 590.643 144.196 592.801 147.632 595.99 150.744 C 602.997 164.32 614.35 186.142 614.616 201.716 C 605.836 198.895 587.213 189.151 578.466 184.83 C 561.976 176.685 544.778 168.612 528.474 160.217 C 548.387 154.129 567.759 146.231 588.141 140.535 z"/>
<path transform="translate(0,0)" fill="rgb(203,209,226)" fill-opacity="0.176471" d="M 615.603 233.066 C 615.428 240.084 613.825 244.686 613.167 251.052 C 612.215 248.878 611.509 248.006 610.133 246.051 C 611.426 242.225 613.939 236.894 615.603 233.066 z"/>
<path transform="translate(0,0)" fill="rgb(224,231,244)" fill-opacity="0.227451" d="M 537.742 110.3 L 545.515 113.091 L 536.079 116.394 L 535.734 115.459 C 536.35 111.963 535.728 112.734 537.742 110.3 z"/>
<path transform="translate(0,0)" fill="url(#Gradient2)" d="M 344.786 332.9 C 330.401 320.652 317.457 283.057 314.308 264.39 C 307.129 219.954 317.992 174.491 344.484 138.101 C 371.643 99.9125 412.908 74.1286 459.137 66.4598 C 509.233 58.2452 547.73 70.3578 587.965 99.2277 L 587.41 102.913 L 588.086 103.9 C 583.088 104.018 575.185 97.5688 569.522 94.8956 L 569.015 95.8511 C 564.573 104.041 555.693 108.613 555.771 115.47 C 559.135 117.868 561.585 117.498 563.698 120.359 L 563.886 121.573 C 561.64 120.972 551.347 115.068 545.515 113.091 L 537.742 110.3 C 503.288 98.4005 464.732 102.215 432.141 118.032 C 397.077 135.112 370.232 165.418 357.508 202.287 C 346.169 235.121 347.529 272.331 362.888 303.672 C 366.367 310.665 370.258 317.446 374.541 323.977 C 372.072 322.775 371.371 322.353 369.908 320.016 C 366.262 319.936 353.475 331.948 349.603 334.899 C 352.938 339.74 354.706 341.983 358.696 346.294 C 337.723 366.221 320.111 387.685 300.604 409.036 C 297.104 412.867 280.847 430.198 279.268 432.749 C 274.798 437.213 274.177 442.161 270.284 445.772 C 218.899 493.443 173.358 548.434 123.709 597.28 C 121.639 595.316 121.301 594.98 119.925 592.49 C 120.416 589.413 134.898 575.041 137.939 571.827 L 182.534 524.657 L 352.963 343.911 C 350.554 340.411 347.368 336.37 344.786 332.9 z"/>
<path transform="translate(0,0)" fill="rgb(44,54,87)" d="M 344.786 332.9 C 330.401 320.652 317.457 283.057 314.308 264.39 C 307.129 219.954 317.992 174.491 344.484 138.101 C 371.643 99.9125 412.908 74.1286 459.137 66.4598 C 509.233 58.2452 547.73 70.3578 587.965 99.2277 L 587.41 102.913 C 548.369 77.5876 506.169 69.4022 460.422 79.1679 C 414.513 89.2564 374.476 117.136 349.089 156.695 C 324.972 194.234 316.369 238.475 325.274 282.457 C 328.765 299.701 336.88 317.179 344.786 332.9 z"/>
<path transform="translate(0,0)" fill="rgb(91,130,197)" d="M 545.515 113.091 C 551.347 115.068 561.64 120.972 563.886 121.573 C 572.289 127.476 580.384 133.805 588.141 140.535 C 567.759 146.231 548.387 154.129 528.474 160.217 C 544.778 168.612 561.976 176.685 578.466 184.83 C 587.213 189.151 605.836 198.895 614.616 201.716 C 617.081 207.428 614.747 224.563 615.603 233.066 C 613.939 236.894 611.426 242.225 610.133 246.051 C 597.893 240.848 577.918 229.715 565.479 223.27 C 537.703 208.971 510.007 194.517 482.394 179.907 C 484.071 166.334 484.631 148.819 485.951 134.478 C 499.653 129.724 523.246 122.207 536.079 116.394 L 545.515 113.091 z"/>
<path transform="translate(0,0)" fill="rgb(124,132,156)" d="M 595.99 150.744 C 600.439 153.748 607.557 165.836 610.293 170.895 C 634.647 215.925 629.459 270.438 601.144 312.35 C 579.351 344.389 545.796 366.533 507.769 373.972 C 474.151 380.443 436.443 374.522 407.947 355.083 C 401.72 350.836 387.108 339.434 383.253 333.117 C 405.869 350.459 426.305 361.523 455.293 364.807 C 458.647 365.187 467.586 365.851 470.653 365.465 C 475.827 354.546 480.407 343.929 486.089 333.197 C 508.552 332.281 548.73 327.151 572.087 324.453 C 592.187 304.765 607.687 278.803 613.167 251.052 C 613.825 244.686 615.428 240.084 615.603 233.066 C 614.747 224.563 617.081 207.428 614.616 201.716 C 614.35 186.142 602.997 164.32 595.99 150.744 z"/>
<path transform="translate(0,0)" fill="rgb(203,209,226)" d="M 486.089 333.197 C 508.552 332.281 548.73 327.151 572.087 324.453 C 542.884 353.456 510.767 364.129 470.653 365.465 C 475.827 354.546 480.407 343.929 486.089 333.197 z"/>
<path transform="translate(0,0)" fill="rgb(203,209,226)" d="M 279.268 432.749 L 280.079 432.668 C 281.658 432.498 285.311 432.183 286.371 431.06 C 294.319 422.637 302.146 414.032 309.909 405.437 C 317.438 397.1 325.188 389.049 332.825 380.827 C 341.798 369.287 349.515 363.027 359.228 352.609 L 360.978 352.562 C 363.363 355.397 364.338 355.602 364.833 358.831 C 359.801 366.579 347.018 380.038 340.412 387.369 C 324.082 405.319 307.905 423.452 291.333 441.178 C 285.742 447.158 279.237 451.623 273.593 457.73 C 229.531 505.409 186.359 553.919 142.453 601.743 C 140.259 604.133 137.799 606.699 136.636 609.774 C 132.946 606.802 127.244 600.794 123.709 597.28 C 173.358 548.434 218.899 493.443 270.284 445.772 C 274.177 442.161 274.798 437.213 279.268 432.749 z"/>
<path transform="translate(0,0)" fill="rgb(124,132,156)" d="M 293.045 458.009 C 298.145 449.787 310.867 436.464 317.716 428.996 L 354.804 388.696 C 360.647 382.383 369.632 373.388 374.068 366.387 L 382.453 372.783 C 362.611 395.604 339.232 419.713 317.972 441.414 C 260.747 499.825 205.971 562.013 148.6 620.076 L 139.583 612.828 C 148.361 600.208 174.929 572.948 186.71 559.809 L 257.016 482.57 C 265.884 472.963 276.059 460.938 285.036 451.901 C 288.361 452.659 290.499 455.471 293.045 458.009 z"/>
<path transform="translate(0,0)" fill="rgb(0,62,167)" d="M 587.965 99.2277 C 592.174 96.1373 613.679 89.1245 620.069 86.9383 C 624.705 98.8356 629.588 112.974 634.434 124.445 C 629.624 126.234 622.596 128.608 618.112 130.718 C 610.082 122.155 598.484 109.278 588.086 103.9 L 587.41 102.913 L 587.965 99.2277 z"/>
<path transform="translate(0,0)" fill="rgb(124,132,156)" d="M 455.156 403.332 C 459.149 402.164 460.27 401.13 463.98 403.807 C 459.82 404.292 459.237 404.265 455.156 403.332 z"/>
<path transform="translate(0,0)" fill="rgb(0,62,167)" d="M 753.732 17.6719 C 766.668 22.2486 784.905 27.2479 798.377 31.0545 C 764.706 125.536 734.789 223.564 701.078 318.32 C 687.23 313.492 670.194 308.852 655.945 304.585 C 689.533 209.591 720.397 112.829 753.732 17.6719 z"/>
<path transform="translate(0,0)" fill="rgb(0,62,167)" d="M 844.067 102.533 L 970.538 168.395 C 970.004 183.267 968.761 198.981 967.801 213.899 C 955.561 218.927 939.276 224.164 926.517 228.634 C 899.203 238.095 871.947 247.72 844.749 257.507 L 832.906 261.657 C 829.143 249.404 823.495 234.859 819.052 222.626 C 824.629 220.507 830.575 218.525 836.265 216.732 C 865.808 207.425 895.221 196.933 924.938 188.25 L 825.069 138.118 C 829.526 128.383 838.741 112.467 844.067 102.533 z"/>
<path transform="translate(0,0)" fill="rgb(211,57,0)" fill-opacity="0.643137" d="M 1719.65 1000.41 C 1755.89 994.333 1761.25 1031.66 1752.72 1058.52 C 1749.89 1067.42 1743.66 1072.7 1735.29 1076.38 C 1700.32 1083.07 1694.5 1041.29 1702.94 1017.01 C 1706.12 1007.88 1711.23 1004.12 1719.65 1000.41 z M 1729.88 1064.2 C 1733.49 1061.97 1735.52 1058.94 1736.34 1054.6 C 1738.58 1042.7 1739.54 1027.06 1734 1016.01 C 1732.21 1012.45 1729.48 1012.54 1726.03 1012.19 C 1714.28 1017.86 1716.71 1048.45 1721 1058.62 C 1722.76 1062.8 1725.99 1063.37 1729.88 1064.2 z"/>
<path transform="translate(0,0)" fill="rgb(211,57,0)" fill-opacity="0.643137" d="M 1182.11 999.404 C 1215.36 999.578 1217.65 1040.9 1206.21 1063.78 C 1202.23 1071.75 1195.75 1075.07 1187.41 1077.11 C 1170.06 1077.09 1159.17 1067.85 1156.67 1050.73 C 1153.37 1028.13 1156.22 1003.99 1182.11 999.404 z M 1187.62 1064.14 C 1195.13 1053.53 1198.07 1021.72 1187.4 1013.3 C 1184.05 1012.34 1183.47 1012.42 1180.01 1012.63 C 1179.03 1013.93 1176.58 1017.23 1176.28 1018.66 C 1173.59 1031.72 1168.29 1063.22 1187.62 1064.14 z"/>
<path transform="translate(0,0)" fill="rgb(211,57,0)" d="M 1324.28 586.236 C 1338.73 585.208 1350.79 591.482 1354.62 605.788 C 1360.55 627.894 1358.57 655.811 1333.62 663.396 C 1298.01 665.519 1294.72 622.713 1306.72 598.372 C 1310.03 591.653 1317.15 587.906 1324.28 586.236 z M 1332.18 650.515 C 1333.91 648.636 1336.29 646.001 1336.77 643.489 C 1339.07 631.298 1344.36 598.932 1325.87 598.969 C 1316.8 608.016 1316.15 637.142 1323.7 647.867 C 1325.32 650.18 1329.43 650.526 1332.18 650.515 z"/>
<path transform="translate(0,0)" fill="rgb(211,57,0)" fill-opacity="0.647059" d="M 1335.91 1000.43 C 1372.41 994.299 1377.49 1032.46 1368.92 1059.02 C 1366.22 1067.4 1360.24 1072.57 1352.28 1075.87 C 1318.41 1085.21 1310.5 1042.56 1318.76 1018.87 C 1322.26 1008.82 1326.53 1004.86 1335.91 1000.43 z M 1347.44 1063.91 C 1356.27 1053.72 1357.72 1022.59 1347.79 1013.5 C 1345.03 1012.32 1343.19 1012.64 1340.24 1012.79 C 1337.76 1016.01 1336.27 1018.05 1335.59 1022.12 C 1333.88 1032.26 1330.03 1066.69 1347.44 1063.91 z"/>
<path transform="translate(0,0)" fill="rgb(211,57,0)" fill-opacity="0.647059" d="M 1318.83 282.342 C 1355.87 276.556 1360.6 316.492 1350.66 342.964 C 1347.73 350.761 1341.57 355.292 1333.96 358.108 C 1300.52 367.277 1292.84 322.06 1301.83 299.492 C 1305.66 289.896 1309.7 286.417 1318.83 282.342 z M 1330.38 345.681 C 1338.79 335.235 1338.92 311.412 1333.51 299.302 C 1331.35 294.477 1327.94 294.487 1323.06 294.622 C 1319.35 299.189 1318.25 301.644 1317.63 307.579 C 1316.57 317.751 1313.24 349.083 1330.38 345.681 z"/>
<path transform="translate(0,0)" fill="rgb(211,57,0)" d="M 1889.13 738.301 C 1921.54 737.997 1924.25 782.205 1912.21 803.526 C 1907.58 811.733 1901.4 814.115 1892.67 816.059 C 1873.96 815.253 1864.83 804.669 1862.58 786.522 C 1859.98 765.461 1864.4 741.078 1889.13 738.301 z M 1891.21 803.449 C 1895.38 801.107 1897.37 799.635 1898.51 794.565 C 1901.23 782.441 1902.01 766.658 1896.66 755.188 C 1895.07 751.791 1891.81 751.527 1888.59 751 C 1883.57 754.369 1881.72 758.298 1881.15 764.307 C 1879.99 776.525 1876.93 798.717 1891.21 803.449 z"/>
<path transform="translate(0,0)" fill="rgb(211,57,0)" d="M 1978.99 586.318 C 1994.27 584.982 2005.95 590.914 2010.31 606.072 C 2016.18 626.52 2013.97 655.783 1990.51 663.042 C 1975.15 664.551 1962.53 658.245 1958.72 642.766 C 1953.62 622.067 1954.72 593.026 1978.99 586.318 z M 1988.58 650.311 C 1996.02 640.523 1997.04 613.687 1990.65 602.461 C 1988.84 599.29 1985.06 598.983 1981.53 598.786 C 1974.48 605.77 1974.29 617.378 1974.35 626.861 C 1974.43 638.526 1974.58 650.158 1988.58 650.311 z"/>
<path transform="translate(0,0)" fill="rgb(211,57,0)" fill-opacity="0.643137" d="M 1608.8 1000.26 C 1623.6 998.091 1636.91 1003.32 1641.44 1018.17 C 1647.85 1039.13 1645.96 1068.34 1622.33 1076.51 C 1587.48 1081.8 1582.82 1040.58 1591.81 1016.15 C 1595.02 1007.42 1600.48 1003.61 1608.8 1000.26 z M 1619.24 1063.99 C 1628.05 1054.38 1629.3 1025.08 1620.6 1014.24 C 1619.19 1012.49 1615.2 1012.66 1612.97 1012.84 L 1612.26 1012.91 C 1603.72 1023.66 1601.09 1066.78 1619.24 1063.99 z"/>
<path transform="translate(0,0)" fill="rgb(211,57,0)" fill-opacity="0.643137" d="M 1991.68 1000.41 C 2028.64 993.904 2033.5 1034.15 2023.81 1060.52 C 2020.93 1068.36 2014.95 1073.29 2007.27 1076.25 C 1971.89 1083.56 1966.91 1040.88 1975.05 1016.75 C 1978.11 1007.69 1983.42 1003.98 1991.68 1000.41 z M 2001.47 1064.4 C 2005.31 1062.12 2007.16 1059.81 2008.02 1055.14 C 2010.26 1043.01 2011.44 1027.17 2005.93 1015.82 C 2004.38 1012.61 2001.33 1012.54 1998.29 1012.16 C 1985.93 1018.11 1988.79 1048.74 1993.19 1059.42 C 1994.47 1062.52 1998.51 1063.59 2001.47 1064.4 z"/>
<path transform="translate(0,0)" fill="rgb(211,57,0)" fill-opacity="0.643137" d="M 1447.75 1000.41 C 1484.64 993.927 1489.33 1033.63 1480.06 1060.11 C 1477.19 1068.3 1471.03 1073.21 1463.11 1076.31 C 1428.18 1083.64 1422.64 1040.44 1431.23 1016.52 C 1434.45 1007.53 1439.37 1004.01 1447.75 1000.41 z M 1459.81 1064.16 C 1460.92 1062.48 1463.32 1058.81 1463.61 1056.96 C 1465.53 1044.84 1471.78 1010.52 1451.96 1012.8 C 1444.29 1022.33 1442.62 1052.28 1451.89 1062.29 C 1453.06 1063.55 1457.98 1064.17 1459.81 1064.16 z"/>
<path transform="translate(0,0)" fill="rgb(211,57,0)" fill-opacity="0.647059" d="M 1864.34 282.12 C 1907.29 274.884 1909.45 347.033 1878.13 357.936 C 1862.36 361.184 1849.49 354.764 1845.08 339.095 C 1839.34 318.725 1840.8 289.443 1864.34 282.12 z M 1874.91 345.168 C 1882.42 335.77 1883.84 305.942 1875.03 296.226 C 1873.31 294.327 1868.4 294.678 1865.84 294.946 C 1859.74 305.31 1855.05 351.709 1874.91 345.168 z"/>
<path transform="translate(0,0)" fill="rgb(211,57,0)" fill-opacity="0.647059" d="M 1882.06 1000.11 C 1917.55 994.461 1922.04 1038.42 1911.32 1062.16 C 1907.62 1070.36 1902.38 1073.67 1894.14 1076.38 C 1878.39 1078.85 1866.08 1071.54 1862.16 1056.08 C 1856.95 1035.53 1858.4 1007.24 1882.06 1000.11 z M 1891.25 1063.82 C 1900.39 1054.73 1901.22 1024.66 1892.52 1014.36 C 1890.62 1012.11 1886.28 1012.64 1883.45 1012.76 C 1877.27 1023.14 1872.43 1067.64 1891.25 1063.82 z"/>
<path transform="translate(0,0)" fill="rgb(211,57,0)" fill-opacity="0.643137" d="M 1431.01 282.281 C 1466.79 276.303 1471.37 314.6 1463.3 340.473 C 1460.48 349.531 1454.23 354.809 1445.71 358.429 C 1431.4 360.55 1417.58 355.074 1413.48 340.76 C 1407.55 320.016 1407.62 290.891 1431.01 282.281 z M 1440.32 346.637 C 1448.83 340.692 1448.71 326.735 1448.46 317.192 C 1448.22 308.27 1448.37 295.701 1437.73 294.322 C 1434.85 295.452 1432.26 296.572 1431.09 299.919 C 1426.98 311.769 1427.48 327.773 1431.25 339.607 C 1432.81 344.527 1436 345.399 1440.32 346.637 z"/>
<path transform="translate(0,0)" fill="rgb(211,57,0)" fill-opacity="0.643137" d="M 1980.58 281.444 C 2014.48 282.25 2015.79 322.804 2004.4 346.366 C 2000.69 354.027 1993.37 357.221 1985.45 359.1 C 1961.33 359.43 1954.02 340.733 1954.38 319.444 C 1954.71 299.543 1959.08 284.955 1980.58 281.444 z M 1984.66 346.32 C 1989.76 342.475 1991.13 337.988 1991.6 331.68 C 1992.34 321.58 1995.44 296.211 1981.92 294.303 C 1981.49 294.243 1981.07 294.19 1980.64 294.145 C 1977.09 296.093 1974.85 298.598 1974.05 302.626 C 1971.89 313.609 1968.48 342.115 1982.46 345.787 C 1983.19 345.976 1983.92 346.154 1984.66 346.32 z"/>
<path transform="translate(0,0)" fill="rgb(211,57,0)" fill-opacity="0.839216" d="M 1867.59 876.225 C 1903.79 871.425 1908.76 906.189 1901.08 933.652 C 1898.67 942.275 1892.26 948.082 1884.29 951.736 C 1847.73 956.9 1843.31 921.78 1850.52 894.24 C 1852.92 885.043 1859.4 880.098 1867.59 876.225 z M 1879.04 940.054 C 1886.92 931.071 1886.43 918.36 1885.92 907.028 C 1885.48 897.219 1883.74 888.44 1872.71 887.936 C 1868.52 892.683 1866.55 897.121 1866.32 903.591 C 1865.91 915.502 1861.86 939.522 1879.04 940.054 z"/>
<path transform="translate(0,0)" fill="rgb(211,57,0)" fill-opacity="0.839216" d="M 1321.06 432.213 C 1358.88 428.832 1362.42 464.477 1352.73 493.177 C 1350.3 500.35 1343.72 505.352 1336.67 507.856 C 1298.5 515.443 1293.58 466.38 1307.95 442.338 C 1311.04 437.157 1315.73 434.779 1321.06 432.213 z M 1329.83 496.816 C 1334.83 493.509 1337 491.215 1337.77 485.029 C 1339.15 473.959 1343.15 445.74 1327.55 444.327 C 1324.46 445.741 1322.1 447.662 1321.22 451.046 C 1317.97 463.422 1314.58 491.866 1329.83 496.816 z"/>
<path transform="translate(0,0)" fill="rgb(211,57,0)" fill-opacity="0.839216" d="M 1976.7 432.202 C 2014.22 428.774 2018.22 464.106 2008.29 493.22 C 2005.93 500.139 1999.51 505.278 1992.69 507.796 C 1953.89 514.88 1949.59 467.408 1963.31 442.341 C 1966.09 437.254 1971.6 434.586 1976.7 432.202 z M 1987.37 496.421 C 1996.72 487.041 1997.75 454.838 1988.74 445.63 C 1985.94 444.522 1985.31 444.366 1982.33 443.953 C 1977.27 447.994 1974.93 453.93 1974.86 460.294 C 1974.72 473.356 1970.42 493.645 1987.37 496.421 z"/>
<path transform="translate(0,0)" fill="rgb(211,57,0)" fill-opacity="0.839216" d="M 1865.05 432.144 C 1903.4 428.872 1906.7 466.725 1895.8 494.955 C 1893.36 501.275 1887.02 505.707 1880.61 507.737 C 1845.66 514.925 1839.6 475.466 1847.74 450.339 C 1850.73 441.112 1856.45 436.081 1865.05 432.144 z M 1876.13 495.684 C 1885.61 487.056 1885.15 456.568 1877.71 446.71 C 1875.92 444.327 1871.1 444.584 1868.4 444.662 C 1861.89 455.48 1856.95 500.526 1876.13 495.684 z"/>
<path transform="translate(0,0)" fill="rgb(211,57,0)" fill-opacity="0.839216" d="M 1756.04 876.276 C 1772.56 874.224 1784.9 878.961 1789.91 895.91 C 1795.58 915.113 1793.47 944.822 1771.3 951.846 C 1742.06 957.591 1733.4 929.541 1736.33 906.068 C 1738.17 891.281 1742.52 882.656 1756.04 876.276 z M 1765.8 940.371 C 1771.77 935.944 1772.72 932.943 1773.75 924.818 C 1774.99 915.11 1775.21 898.979 1769.41 890.754 C 1767.87 888.574 1764.11 888.251 1761.59 887.914 C 1758.82 890.537 1757.11 892.288 1756.13 896.063 C 1753.38 906.599 1749.73 939.105 1765.8 940.371 z"/>
<path transform="translate(0,0)" fill="rgb(211,57,0)" fill-opacity="0.839216" d="M 1259.97 876.196 C 1297.43 871.591 1301.87 910.994 1291.06 938.084 C 1288.32 944.954 1282.1 949.522 1275.14 951.752 C 1245.83 956.805 1237.55 931.448 1239.85 907.22 C 1241.28 892.139 1245.84 882.203 1259.97 876.196 z M 1269.76 940.367 C 1275.79 935.605 1276.52 930.849 1277.4 922.985 C 1278.42 913.77 1278.66 897.647 1272.64 890.408 C 1271.1 888.561 1267.51 888.364 1265.24 888.137 C 1254.75 895.09 1255.85 926.224 1261.85 936.288 C 1263.65 939.298 1266.62 939.956 1269.76 940.367 z"/>
<path transform="translate(0,0)" fill="rgb(211,57,0)" fill-opacity="0.839216" d="M 1498.98 876.155 C 1514.13 874.134 1527.49 878.774 1532.05 894.36 C 1537.81 914.061 1536.54 944.549 1513.65 951.912 C 1478.47 957.997 1473.16 916.718 1482.36 892.031 C 1485.44 883.764 1490.99 879.342 1498.98 876.155 z M 1509.88 939.836 C 1519.11 932.701 1518.9 900.587 1512.32 890.942 C 1510.7 888.569 1507.35 888.041 1504.68 887.789 C 1492.62 896.326 1493.44 937.521 1505.72 939.371 C 1507.1 939.569 1508.49 939.724 1509.88 939.836 z"/>
<path transform="translate(0,0)" fill="rgb(211,57,0)" fill-opacity="0.839216" d="M 1322.74 876.311 C 1359.02 871.205 1364.42 905.394 1356.52 933.841 C 1354.21 942.176 1348.08 948.178 1340.27 951.688 C 1303.9 957.079 1299.41 923.493 1305.72 895.835 C 1307.98 885.896 1314.21 880.766 1322.74 876.311 z M 1334.42 939.874 C 1343.93 931.449 1344.2 900.29 1336.12 890.079 C 1334.93 888.587 1330.61 888.119 1328.71 887.993 C 1324.97 891.781 1322.8 894.825 1322.29 900.815 C 1321.35 911.739 1319.21 928.163 1326.36 937.336 C 1327.81 939.191 1332.2 939.67 1334.42 939.874 z"/>
<path transform="translate(0,0)" fill="rgb(211,57,0)" fill-opacity="0.839216" d="M 1434.83 876.239 C 1450.57 874.27 1463.53 878.416 1468.41 894.668 C 1474.31 914.345 1472.81 944.185 1450.35 951.883 C 1414.9 957.077 1410.37 919.877 1418.03 893.864 C 1420.62 885.058 1426.68 879.916 1434.83 876.239 z M 1444.34 940.613 C 1448.96 937.637 1450.77 935.024 1451.68 929.502 C 1453.29 919.76 1456.69 890.245 1443.33 888.376 C 1442.69 888.284 1442.05 888.205 1441.41 888.137 C 1438.49 889.572 1436.29 891.381 1435.27 894.922 C 1432.11 905.877 1431.95 924.323 1436.18 934.899 C 1437.62 938.477 1441.11 939.614 1444.34 940.613 z"/>
<path transform="translate(0,0)" fill="rgb(211,57,0)" fill-opacity="0.647059" d="M 1064.8 1000.31 C 1078.61 997.901 1093.11 1003.09 1096.91 1017.17 C 1102.75 1038.82 1102.88 1068.23 1078.08 1076.56 C 1041.62 1083.45 1036.66 1029.88 1052.3 1008.56 C 1055.7 1003.93 1059.59 1002.37 1064.8 1000.31 z M 1075.29 1063.83 C 1079.01 1059.96 1080.47 1057.68 1081.04 1052.28 C 1082.18 1041.57 1086.42 1011.5 1069.65 1012.87 C 1069.19 1012.91 1068.73 1012.95 1068.27 1013 C 1059.92 1023.71 1057.19 1067.21 1075.29 1063.83 z"/>
<path transform="translate(0,0)" fill="rgb(211,57,0)" fill-opacity="0.839216" d="M 1979.19 876.309 C 2003.16 873.145 2013.63 885.138 2015.35 908.828 C 2016.54 925.154 2013.25 946.097 1995.23 951.779 C 1959.54 958.098 1954.44 918.777 1962.69 893.075 C 1965.48 884.39 1971.06 879.833 1979.19 876.309 z M 1988.65 939.959 C 2001.28 935.142 1998.18 904.021 1994.68 893.579 C 1993.2 889.176 1990.73 888.642 1986.81 887.881 C 1973.56 893.44 1976.8 922.902 1980.2 934.16 C 1981.53 938.549 1984.72 939.242 1988.65 939.959 z"/>
<path transform="translate(0,0)" fill="rgb(211,57,0)" d="M 1945.79 740.236 C 1950.73 739.964 1957 740.106 1962.04 740.074 C 1961.87 764.701 1961.84 789.328 1961.94 813.955 C 1956.05 813.875 1949.79 814.07 1943.87 814.155 L 1943.94 801.25 C 1944.12 786.751 1943.95 771.894 1943.95 757.364 C 1939.07 760.179 1933.51 763.869 1928.67 766.922 C 1925.97 763.214 1923.23 759.072 1920.6 755.27 C 1928.72 750.096 1937.18 744.432 1945.79 740.236 z"/>
<path transform="translate(0,0)" fill="rgb(211,57,0)" d="M 1928.05 588.046 C 1933.13 587.751 1939.59 587.894 1944.78 587.86 C 1943.94 611.087 1944.13 638.397 1944.58 661.692 C 1938.7 661.529 1932.29 661.806 1926.38 661.941 L 1926.4 649.751 C 1927.12 635.825 1926.56 619.156 1926.83 604.786 L 1911.21 614.505 C 1908.56 611.001 1905.64 606.522 1903.1 602.844 C 1911.87 597.19 1918.67 592.792 1928.05 588.046 z"/>
<path transform="translate(0,0)" fill="rgb(211,57,0)" d="M 1994.82 740.243 C 1999.65 739.953 2005.83 740.068 2010.78 740.017 C 2009.67 749.377 2009.74 804.367 2010.69 813.953 L 1992.13 813.981 L 1992.33 798.75 C 1992.97 785.374 1991.41 770.315 1992.96 756.981 L 1977.16 766.836 L 1969.32 755.497 C 1977.82 749.36 1985.2 744.484 1994.82 740.243 z"/>
<path transform="translate(0,0)" fill="rgb(211,57,0)" fill-opacity="0.843137" d="M 1820.89 877.161 C 1825.61 876.981 1831.02 877.08 1835.8 877.049 L 1835.64 950.854 L 1817.74 951.122 L 1817.85 937.229 C 1817.99 922.843 1817.93 908.456 1817.68 894.072 L 1802.36 903.873 L 1794.6 892.296 C 1802.92 886.668 1811.59 880.984 1820.89 877.161 z"/>
<path transform="translate(0,0)" fill="rgb(211,57,0)" fill-opacity="0.847059" d="M 1612.03 877.187 C 1616.34 876.908 1622.42 877.066 1626.87 877.042 C 1626.36 901.215 1626.75 926.557 1626.75 950.854 L 1608.8 951.083 L 1608.9 937.247 C 1608.97 922.819 1608.93 908.389 1608.78 893.961 C 1603.9 897.326 1598.59 900.592 1593.58 903.795 L 1585.68 892.159 C 1593.01 887.382 1604.12 880.152 1612.03 877.187 z"/>
<path transform="translate(0,0)" fill="rgb(211,57,0)" fill-opacity="0.647059" d="M 1241.47 1001.39 C 1245.79 1001.18 1250.96 1001.41 1255.35 1001.49 C 1254.68 1025.62 1255.6 1050.13 1255.06 1074.38 L 1237.19 1074.75 L 1237.71 1060.25 L 1237.37 1018.26 C 1232.33 1021.44 1227.27 1024.58 1222.19 1027.7 L 1214.57 1016.28 C 1221.11 1011.61 1233.7 1003.13 1241.47 1001.39 z"/>
<path transform="translate(0,0)" fill="rgb(211,57,0)" fill-opacity="0.647059" d="M 1673.36 1001.38 C 1677.89 1001.14 1683.18 1001.44 1687.77 1001.59 C 1687.31 1020.86 1688.8 1056.74 1686.95 1074.37 L 1669.68 1074.97 L 1669.77 1058.5 C 1669.81 1045.37 1670.1 1031.47 1669.4 1018.42 C 1664.91 1021.02 1658.95 1025.1 1654.47 1027.99 L 1646.59 1016.32 C 1653.7 1011.56 1665.12 1003.48 1673.36 1001.38 z"/>
<path transform="translate(0,0)" fill="rgb(211,57,0)" fill-opacity="0.647059" d="M 1768.8 283.329 C 1772.8 283.156 1777.94 283.405 1782.02 283.483 L 1781.87 356.419 L 1763.95 356.694 L 1764.35 342.013 C 1764.31 328.176 1764.2 314.339 1764 300.503 C 1759.77 302.528 1752.79 307.35 1748.64 310.044 L 1740.94 298.522 C 1747.77 293.243 1760.33 284.808 1768.8 283.329 z"/>
<path transform="translate(0,0)" fill="rgb(211,57,0)" fill-opacity="0.647059" d="M 1945.35 1001.42 C 1949.98 1001.16 1954.98 1001.44 1959.64 1001.59 C 1959.86 1020.86 1960.73 1056.18 1959.2 1074.37 L 1941.93 1075 L 1941.99 1060.17 C 1942.1 1046.17 1942.02 1032.17 1941.74 1018.17 L 1926.41 1027.93 L 1918.67 1016.26 C 1926.67 1010.53 1935.97 1004.35 1945.35 1001.42 z"/>
<path transform="translate(0,0)" fill="rgb(211,57,0)" fill-opacity="0.647059" d="M 1785.61 1001.39 C 1789.92 1001.18 1795.24 1001.42 1799.62 1001.49 C 1798.58 1025.58 1799.99 1050.25 1799.15 1074.4 L 1781.25 1074.75 L 1781.83 1060.88 C 1781.84 1046.73 1781.69 1032.59 1781.37 1018.44 C 1777.38 1020.55 1770.13 1025.4 1766.1 1027.95 L 1758.33 1016.57 C 1764.81 1011.44 1777.55 1003.1 1785.61 1001.39 z"/>
<path transform="translate(0,0)" fill="rgb(211,57,0)" fill-opacity="0.65098" d="M 1833.35 1001.42 C 1837.72 1001.2 1843.3 1001.37 1847.77 1001.38 L 1847.71 1074.63 C 1842.06 1074.58 1835.94 1074.93 1830.26 1075.14 L 1830.32 1061.25 L 1830.37 1018.33 C 1825.56 1020.94 1819.1 1025.16 1814.33 1028.09 C 1812.18 1024.25 1809.25 1019.78 1806.89 1015.97 C 1814.16 1011.24 1825.06 1003.83 1833.35 1001.42 z"/>
<path transform="translate(0,0)" fill="rgb(211,57,0)" fill-opacity="0.85098" d="M 1660.97 877.154 L 1674.9 876.844 L 1675.1 950.969 L 1657.09 950.976 L 1657.67 936.25 C 1657.7 922.446 1657 907.879 1657.64 894.192 C 1653.1 896.684 1646.79 900.906 1642.25 903.773 C 1639.68 900.562 1636.65 895.691 1634.3 892.164 C 1642.29 887.006 1652.07 880.399 1660.97 877.154 z"/>
<path transform="translate(0,0)" fill="rgb(211,57,0)" fill-opacity="0.647059" d="M 1928.44 283.378 C 1932.81 283.157 1937.8 283.435 1942.23 283.574 C 1942.23 303.435 1943.41 337.786 1941.76 356.351 L 1924.61 357.021 C 1924.44 351.904 1924.58 346.4 1924.61 341.25 C 1924.65 328.39 1924.97 312.84 1924.09 300.223 L 1908.94 309.95 L 1901.29 298.249 C 1908.53 292.894 1919.82 285.589 1928.44 283.378 z"/>
<path transform="translate(0,0)" fill="rgb(211,57,0)" fill-opacity="0.647059" d="M 1223.41 283.396 C 1227.98 283.127 1233.31 283.384 1237.95 283.489 C 1237.57 307.772 1238.22 332.1 1237.67 356.41 C 1231.32 356.416 1226.21 356.623 1219.88 357.072 L 1220.25 341.912 C 1220.34 328.15 1220.11 314.153 1220 300.372 L 1204.66 309.809 L 1197.05 298.352 C 1204.91 293.037 1214.36 286.264 1223.41 283.396 z"/>
<path transform="translate(0,0)" fill="rgb(211,57,0)" fill-opacity="0.647059" d="M 1384.74 283.29 C 1389.02 283.204 1393.79 283.443 1398.1 283.564 C 1398.27 303.784 1399.16 337.063 1397.69 356.351 L 1380.47 356.979 C 1380.3 351.997 1380.47 346.292 1380.49 341.25 C 1380.62 327.585 1380.48 313.918 1380.07 300.259 L 1365.16 310.032 L 1357.43 298.261 C 1364.72 293.318 1376.14 285.074 1384.74 283.29 z"/>
<path transform="translate(0,0)" fill="rgb(211,57,0)" d="M 1323.76 740.194 L 1338.81 740.023 C 1338.6 764.685 1338.62 789.35 1338.89 814.012 C 1333.18 813.836 1326.89 814.053 1321.14 814.13 L 1321.23 798.5 C 1321.37 785.812 1320.65 769.432 1321.64 757.084 L 1305.83 767 L 1298.4 754.935 C 1306.01 749.95 1315.6 743.781 1323.76 740.194 z"/>
<path transform="translate(0,0)" fill="rgb(211,57,0)" fill-opacity="0.65098" d="M 1289.41 1001.41 C 1293.96 1001.24 1299.1 1001.34 1303.72 1001.31 L 1303.75 1074.65 C 1298.24 1074.51 1291.86 1074.89 1286.28 1075.09 L 1286.31 1061.25 L 1286.3 1018.22 C 1280.68 1021.81 1275.97 1024.78 1270.09 1027.98 L 1263.39 1015.9 C 1271.07 1010.9 1280.75 1004.23 1289.41 1001.41 z"/>
<path transform="translate(0,0)" fill="rgb(211,57,0)" fill-opacity="0.647059" d="M 1401.67 1001.34 C 1406.1 1001.24 1411.01 1001.44 1415.48 1001.52 C 1415.9 1016.95 1416.51 1060.53 1414.97 1074.43 L 1397.86 1074.97 L 1397.93 1060.45 C 1398.08 1046.36 1397.97 1032.26 1397.59 1018.17 L 1382.61 1027.95 C 1379.99 1024.22 1377.35 1020.06 1374.81 1016.24 C 1381.98 1011.41 1393.31 1003.41 1401.67 1001.34 z"/>
<path transform="translate(0,0)" fill="rgb(211,57,0)" fill-opacity="0.647059" d="M 1816.46 283.364 C 1820.84 283.225 1825.77 283.336 1830.2 283.332 L 1830.19 356.59 C 1824.57 356.555 1818.5 356.908 1812.86 357.127 L 1812.95 341.25 L 1812.96 300.37 C 1808.3 302.799 1801.53 307.293 1796.87 310.212 C 1794.62 306.157 1791.9 301.866 1789.48 297.87 C 1796.44 293.409 1808.51 285.169 1816.46 283.364 z"/>
<path transform="translate(0,0)" fill="rgb(211,57,0)" fill-opacity="0.654902" d="M 1272.41 283.365 L 1286.2 283.291 L 1286.2 356.587 C 1280.79 356.469 1274.35 356.882 1268.87 357.09 L 1268.96 342.25 L 1268.97 300.236 C 1263.35 303.782 1258.5 306.832 1252.62 309.965 L 1245.91 298.003 C 1253 293.042 1264.24 285.73 1272.41 283.365 z"/>
<path transform="translate(0,0)" fill="rgb(211,57,0)" fill-opacity="0.847059" d="M 1562.91 877.251 C 1567.23 876.919 1573.48 877.025 1577.95 876.961 C 1577.78 901.652 1577.86 926.345 1578.17 951.036 C 1572.56 950.847 1566.34 951.05 1560.68 951.111 L 1560.74 933.75 C 1560.78 920.487 1560.73 907.224 1560.58 893.962 C 1555.33 897.48 1549.94 900.781 1544.41 903.856 L 1537.51 892.232 C 1544.07 887.311 1555.44 880.625 1562.91 877.251 z"/>
<path transform="translate(0,0)" fill="rgb(211,57,0)" fill-opacity="0.65098" d="M 1513.65 1001.35 L 1527.13 1001.27 C 1526.81 1025.63 1527.23 1050.07 1526.9 1074.49 L 1509.25 1074.66 L 1509.88 1060.87 C 1510 1046.73 1509.76 1032.6 1509.16 1018.48 C 1504.37 1021.27 1498.8 1024.99 1494.04 1028 C 1491.52 1024.05 1488.93 1020.14 1486.26 1016.28 C 1493.3 1011.63 1505.46 1003.05 1513.65 1001.35 z"/>
<path transform="translate(0,0)" fill="rgb(211,57,0)" fill-opacity="0.843137" d="M 1366.09 899.109 C 1364.55 896.672 1362.32 893.945 1364.54 891.359 C 1374.24 880.025 1389.05 876.76 1402.86 877.011 C 1403.81 898.556 1402.83 928.594 1402.87 950.821 L 1384.95 951.107 C 1385.04 937.599 1385.89 908.3 1384.66 895.8 C 1382.43 895.305 1381.53 896.345 1379.05 897.589 C 1372.94 895.573 1372.5 896.243 1366.09 899.109 z"/>
<path transform="translate(0,0)" fill="rgb(211,57,0)" fill-opacity="0.843137" d="M 1906.15 892.516 C 1923.33 880.663 1927.07 876.591 1947.68 877.034 C 1947.11 901.663 1947.1 926.302 1947.66 950.931 L 1929.11 951.055 C 1929.75 936.485 1930.51 909.978 1929.33 895.987 C 1926.47 895.418 1926.11 896.4 1922.94 898.157 C 1919.27 895.992 1920.5 896.051 1916.62 896.151 C 1914.29 897.536 1912.98 898.271 1910.9 900.073 C 1910.36 897.884 1907.58 894.502 1906.15 892.516 z"/>
<path transform="translate(0,0)" fill="rgb(211,57,0)" fill-opacity="0.847059" d="M 1903.42 448.288 C 1920.39 436.948 1924.45 432.631 1944.67 433.1 C 1944.22 457.729 1944.79 482.38 1944.35 506.996 L 1926.51 507.195 C 1926.66 489.531 1927.27 467.702 1926.31 450.36 C 1923.67 452.052 1921.7 453.113 1918.94 454.552 C 1915.3 450.634 1912.14 452.67 1907.88 455.59 L 1903.42 448.288 z"/>
<path transform="translate(0,0)" fill="rgb(211,57,0)" fill-opacity="0.65098" d="M 1128.96 1001.16 L 1143.8 1001.49 C 1143.43 1024.48 1144.67 1051.95 1143.21 1074.37 C 1137.96 1074.63 1131.43 1074.53 1126.08 1074.57 L 1126.81 1061.41 C 1126.86 1047.09 1126.5 1032.77 1125.73 1018.47 C 1122.16 1020.33 1114.41 1025.53 1110.7 1027.9 C 1108.08 1024.01 1105.49 1019.88 1102.93 1015.93 C 1110.99 1010.66 1120.12 1004.95 1128.96 1001.16 z"/>
<path transform="translate(0,0)" fill="rgb(211,57,0)" fill-opacity="0.847059" d="M 1359.45 448.262 C 1376.46 437.221 1380.35 432.682 1400.54 433.058 C 1400.2 457.532 1400.85 482.63 1400.04 506.973 L 1382.36 507.219 C 1382.17 499.312 1383.8 454.837 1381.48 451.326 L 1378.19 452.636 C 1373.86 451.319 1372.06 451.122 1367.86 453.382 C 1366.52 454.108 1365.21 454.876 1363.93 455.684 C 1362.91 453.578 1360.75 450.357 1359.45 448.262 z"/>
<path transform="translate(0,0)" fill="rgb(211,57,0)" fill-opacity="0.654902" d="M 1561.54 1001.38 L 1575.32 1001.25 L 1575.23 1074.64 L 1558.65 1075.02 L 1558.65 1058.25 C 1558.71 1044.9 1558.6 1031.56 1558.31 1018.21 C 1553 1021.59 1547.63 1024.86 1542.2 1028.05 L 1535.29 1016.09 C 1540.98 1011.79 1554.83 1002.99 1561.54 1001.38 z"/>
<path transform="translate(0,0)" fill="rgb(211,57,0)" fill-opacity="0.854902" d="M 1707.67 877.169 C 1712.62 876.734 1718.13 876.927 1723.14 876.976 C 1723.13 897.893 1722.24 930.762 1723.66 951.063 C 1718.24 950.919 1712.14 951.095 1706.65 951.132 L 1706.65 938.25 C 1706.75 923.492 1706.68 908.733 1706.43 893.977 C 1701.13 897.334 1695.77 900.6 1690.36 903.773 L 1683.03 892.453 C 1690.59 886.884 1699.51 881.941 1707.67 877.169 z"/>
<path transform="translate(0,0)" fill="rgb(211,57,0)" fill-opacity="0.847059" d="M 1428.55 506.126 C 1408.33 497.845 1408.22 452.991 1422.29 439.059 C 1434.21 427.258 1448.5 428.994 1459.93 439.943 C 1456.95 446.773 1454.77 451.923 1450.97 458.333 C 1449.19 451.607 1448.8 448.028 1442.83 444.223 C 1426.77 442.922 1429.03 483.958 1434.65 493.942 L 1428.55 506.126 z"/>
<path transform="translate(0,0)" fill="rgb(211,57,0)" fill-opacity="0.854902" d="M 1791.46 448.197 C 1807.76 437.669 1812.6 432.664 1832.15 433.041 C 1831.91 457.742 1831.96 482.445 1832.28 507.145 L 1815.4 507.202 C 1815.16 498.404 1816.91 455.566 1814.02 450.539 C 1810 448.469 1811.91 448.786 1807.03 450.175 C 1804.1 451.006 1798.43 453.642 1795.99 455.309 C 1795.69 454.587 1792.1 449.181 1791.46 448.197 z"/>
<path transform="translate(0,0)" fill="url(#Gradient1)" d="M 1468.83 298.189 C 1485.98 286.896 1489.54 282.751 1509.84 283.311 C 1509.51 300.562 1509.52 317.817 1509.89 335.067 C 1507.9 339.447 1500.67 353.227 1499.8 356.739 C 1498.53 356.301 1495.45 356.013 1493.96 355.821 C 1491.24 352.784 1492.29 309.236 1491.7 300.27 L 1476.57 310.186 C 1474.02 306.165 1471.44 302.166 1468.83 298.189 z"/>
<path transform="translate(0,0)" fill="rgb(211,57,0)" fill-opacity="0.847059" d="M 1256.26 443.514 C 1269.15 434.154 1272.16 432.655 1288.21 433.022 C 1288.12 457.129 1287.58 483.146 1288.4 507.135 L 1273.55 507.075 C 1271.86 502.04 1271.57 500.409 1270.91 495.106 C 1271.44 481.085 1271.09 464.588 1271.16 450.368 C 1267.68 452.425 1264.23 454.193 1260.64 456.056 C 1258.54 452.456 1257.41 447.603 1256.26 443.514 z"/>
<path transform="translate(0,0)" fill="rgb(211,57,0)" d="M 1820.07 748.786 C 1824.61 745.606 1828.23 742.695 1833.57 741.132 L 1834.18 740.947 C 1838.85 739.561 1844.97 739.924 1849.92 740.028 C 1849.75 764.674 1849.77 789.32 1849.97 813.965 C 1844.54 813.971 1838.29 813.824 1832.93 814.097 C 1832.58 795.083 1832.44 776.065 1832.5 757.048 L 1823.9 762.273 C 1822.19 757.673 1820.44 753.707 1820.07 748.786 z"/>
<path transform="translate(0,0)" fill="rgb(211,57,0)" fill-opacity="0.839216" d="M 1752.66 442.531 C 1765.11 433.715 1768.46 432.706 1783.98 433.03 C 1783.81 457.706 1783.82 482.383 1784.01 507.059 C 1779.38 507.126 1771.35 506.997 1766.99 507.476 L 1766.68 504.557 C 1766.64 496.485 1766.71 488.104 1766.28 480.073 C 1772.42 478.572 1770.68 463.998 1768.88 459.539 L 1767.74 459.493 C 1767.48 461.235 1767.27 462.211 1766.35 463.726 C 1766.04 460.353 1766.52 454.062 1766.68 450.464 C 1763.07 452.384 1759.43 454.284 1755.79 456.164 L 1752.66 442.531 z"/>
<path transform="translate(0,0)" fill="rgb(211,57,0)" fill-opacity="0.639216" d="M 1143.43 298.12 C 1144.13 293.313 1147.1 287.636 1151.32 285.336 C 1183.28 267.933 1204.96 309.189 1191.17 334.147 C 1186.61 330.5 1181.31 325.421 1176.89 321.411 C 1175.71 313.269 1177.05 300.479 1169.54 294.919 C 1161.34 293.483 1159.2 299.275 1155.73 305.464 L 1143.43 298.12 z"/>
<path transform="translate(0,0)" fill="rgb(211,57,0)" fill-opacity="0.866667" d="M 1226.98 899.49 C 1227.01 916.001 1226.62 934.698 1227.26 951.031 C 1221.88 951.051 1215.61 950.913 1210.32 951.183 C 1210.25 938.382 1210.46 923.847 1209.86 911.219 C 1214.67 908.397 1222.19 902.831 1226.98 899.49 z"/>
<path transform="translate(0,0)" fill="rgb(211,57,0)" d="M 1433.07 772.175 L 1451 770.238 C 1450.84 784.786 1450.87 799.336 1451.1 813.884 C 1445.46 813.963 1438.46 813.881 1432.94 814.186 L 1433.07 772.175 z"/>
<path transform="translate(0,0)" fill="rgb(211,57,0)" fill-opacity="0.85098" d="M 1134.23 939.822 C 1138.04 938.953 1141.7 938.075 1145.61 937.748 C 1147.4 937.427 1155.11 938.927 1156.4 938.213 C 1166.01 932.923 1172.08 928.894 1182.74 925.654 C 1182.31 933.364 1179.36 940.718 1173.53 945.93 C 1168.12 950.744 1161 953.181 1153.77 952.694 C 1145.09 952.171 1137.89 947.773 1134.23 939.822 z"/>
<path transform="translate(0,0)" fill="rgb(211,57,0)" fill-opacity="0.635294" d="M 1717.54 283.049 C 1735.9 287.452 1738.38 305.834 1738.87 322.326 C 1739 326.507 1737.11 339.007 1733.57 341.463 C 1732.82 337.685 1732.17 332.922 1730.31 329.672 L 1729.13 329.96 L 1728.33 333.395 C 1726.33 320.119 1720.51 297.437 1717.54 283.049 z"/>
<path transform="translate(0,0)" fill="rgb(211,57,0)" fill-opacity="0.603922" d="M 1098.94 944.939 C 1103.83 944.317 1109.71 943.908 1114.69 943.437 C 1113.1 947.039 1116.24 947.855 1111.03 949.568 C 1106.44 951.075 1097.13 952.616 1098.94 944.939 z"/>
<path transform="translate(0,0)" fill="rgb(211,57,0)" fill-opacity="0.894118" d="M 1795.99 455.309 C 1798.43 453.642 1804.1 451.006 1807.03 450.175 C 1811.91 448.786 1810 448.469 1814.02 450.539 C 1810.04 453.344 1804.99 457.435 1800.44 458.58 C 1797.22 457.941 1798.43 458.606 1795.99 455.309 z"/>
<path transform="translate(0,0)" fill="rgb(211,57,0)" fill-opacity="0.878431" d="M 1766.35 463.726 C 1767.27 462.211 1767.48 461.235 1767.74 459.493 L 1768.88 459.539 C 1770.68 463.998 1772.42 478.572 1766.28 480.073 C 1765.87 475.182 1766.22 468.745 1766.35 463.726 z"/>
<path transform="translate(0,0)" fill="rgb(211,57,0)" fill-opacity="0.894118" d="M 1363.93 455.684 C 1365.21 454.876 1366.52 454.108 1367.86 453.382 C 1372.06 451.122 1373.86 451.319 1378.19 452.636 C 1374.95 455.105 1371.55 458.317 1367.61 458.571 C 1365.47 457.796 1365.41 457.525 1363.93 455.684 z"/>
<path transform="translate(0,0)" fill="rgb(211,57,0)" fill-opacity="0.717647" d="M 1525.36 301.188 L 1524.88 300.881 C 1522.22 302.524 1521.81 302.173 1519.16 301.461 C 1518.72 296.172 1524.38 293.772 1528.95 293.969 C 1528.07 296.155 1526.95 299.673 1525.36 301.188 z"/>
<path transform="translate(0,0)" fill="rgb(211,57,0)" fill-opacity="0.913725" d="M 1366.09 899.109 C 1372.5 896.243 1372.94 895.573 1379.05 897.589 C 1376.07 899.802 1373.16 902.59 1369.68 902.691 C 1367.53 901.335 1367.46 901.281 1366.09 899.109 z"/>
<path transform="translate(0,0)" fill="rgb(211,57,0)" fill-opacity="0.905882" d="M 1910.9 900.073 C 1912.98 898.271 1914.29 897.536 1916.62 896.151 C 1920.5 896.051 1919.27 895.992 1922.94 898.157 C 1919.81 900.293 1917.26 902.741 1913.75 902.461 L 1910.9 900.073 z"/>
<path transform="translate(0,0)" fill="rgb(211,57,0)" fill-opacity="0.901961" d="M 1907.88 455.59 C 1912.14 452.67 1915.3 450.634 1918.94 454.552 C 1914.77 457.538 1915.06 458.366 1910.74 458.558 C 1909.61 457.462 1908.89 456.829 1907.88 455.59 z"/>
<path transform="translate(0,0)" fill="rgb(211,57,0)" fill-opacity="0.596078" d="M 1728.33 333.395 L 1729.13 329.96 L 1730.31 329.672 C 1732.17 332.922 1732.82 337.685 1733.57 341.463 L 1731.63 345.538 L 1728.33 333.395 z"/>
</svg>